<svg width="314" height="53" viewBox="0 0 314 53" fill="none" xmlns="http://www.w3.org/2000/svg">
<defs>
<linearGradient id="paint0_linear_485_22085" x1="13" y1="26" x2="307" y2="26" gradientUnits="userSpaceOnUse">
<stop stop-color="#EE0979"/>
<stop offset="1" stop-color="#FF6A00"/>
</linearGradient>
<linearGradient id="paint1_linear_485_22085" x1="0" y1="52" x2="314" y2="52" gradientUnits="userSpaceOnUse">
<stop stop-color="#EE0979"/>
<stop offset="1" stop-color="#FF6A00"/>
</linearGradient>
</defs>
<path d="M14.992 22V5.2H22.264C23.768 5.2 25.064 5.448 26.152 5.944C27.24 6.424 28.08 7.12 28.672 8.032C29.264 8.944 29.56 10.032 29.56 11.296C29.56 12.544 29.264 13.624 28.672 14.536C28.08 15.432 27.24 16.12 26.152 16.6C25.064 17.08 23.768 17.32 22.264 17.32H17.152L18.88 15.616V22H14.992ZM25.672 22L21.472 15.904H25.624L29.872 22H25.672ZM18.88 16.048L17.152 14.224H22.048C23.248 14.224 24.144 13.968 24.736 13.456C25.328 12.928 25.624 12.208 25.624 11.296C25.624 10.368 25.328 9.648 24.736 9.136C24.144 8.624 23.248 8.368 22.048 8.368H17.152L18.88 6.52V16.048ZM38.7844 22.192C37.3124 22.192 36.0164 21.904 34.8964 21.328C33.7924 20.752 32.9364 19.968 32.3284 18.976C31.7204 17.968 31.4164 16.824 31.4164 15.544C31.4164 14.248 31.7124 13.104 32.3044 12.112C32.9124 11.104 33.7364 10.32 34.7764 9.76C35.8164 9.184 36.9924 8.896 38.3044 8.896C39.5684 8.896 40.7044 9.168 41.7124 9.712C42.7364 10.24 43.5444 11.008 44.1364 12.016C44.7284 13.008 45.0244 14.2 45.0244 15.592C45.0244 15.736 45.0164 15.904 45.0004 16.096C44.9844 16.272 44.9684 16.44 44.9524 16.6H34.4644V14.416H42.9844L41.5444 15.064C41.5444 14.392 41.4084 13.808 41.1364 13.312C40.8644 12.816 40.4884 12.432 40.0084 12.16C39.5284 11.872 38.9684 11.728 38.3284 11.728C37.6884 11.728 37.1204 11.872 36.6244 12.16C36.1444 12.432 35.7684 12.824 35.4964 13.336C35.2244 13.832 35.0884 14.424 35.0884 15.112V15.688C35.0884 16.392 35.2404 17.016 35.5444 17.56C35.8644 18.088 36.3044 18.496 36.8644 18.784C37.4404 19.056 38.1124 19.192 38.8804 19.192C39.5684 19.192 40.1684 19.088 40.6804 18.88C41.2084 18.672 41.6884 18.36 42.1204 17.944L44.1124 20.104C43.5204 20.776 42.7764 21.296 41.8804 21.664C40.9844 22.016 39.9524 22.192 38.7844 22.192ZM53.7571 22.192C52.3651 22.192 51.1251 21.912 50.0371 21.352C48.9491 20.776 48.0931 19.984 47.4691 18.976C46.8611 17.968 46.5571 16.824 46.5571 15.544C46.5571 14.248 46.8611 13.104 47.4691 12.112C48.0931 11.104 48.9491 10.32 50.0371 9.76C51.1251 9.184 52.3651 8.896 53.7571 8.896C55.1171 8.896 56.3011 9.184 57.3091 9.76C58.3171 10.32 59.0611 11.128 59.5411 12.184L56.6371 13.744C56.3011 13.136 55.8771 12.688 55.3651 12.4C54.8691 12.112 54.3251 11.968 53.7331 11.968C53.0931 11.968 52.5171 12.112 52.0051 12.4C51.4931 12.688 51.0851 13.096 50.7811 13.624C50.4931 14.152 50.3491 14.792 50.3491 15.544C50.3491 16.296 50.4931 16.936 50.7811 17.464C51.0851 17.992 51.4931 18.4 52.0051 18.688C52.5171 18.976 53.0931 19.12 53.7331 19.12C54.3251 19.12 54.8691 18.984 55.3651 18.712C55.8771 18.424 56.3011 17.968 56.6371 17.344L59.5411 18.928C59.0611 19.968 58.3171 20.776 57.3091 21.352C56.3011 21.912 55.1171 22.192 53.7571 22.192ZM67.6767 22.192C66.3007 22.192 65.0767 21.904 64.0047 21.328C62.9487 20.752 62.1087 19.968 61.4847 18.976C60.8767 17.968 60.5727 16.824 60.5727 15.544C60.5727 14.248 60.8767 13.104 61.4847 12.112C62.1087 11.104 62.9487 10.32 64.0047 9.76C65.0767 9.184 66.3007 8.896 67.6767 8.896C69.0367 8.896 70.2527 9.184 71.3247 9.76C72.3967 10.32 73.2367 11.096 73.8447 12.088C74.4527 13.08 74.7567 14.232 74.7567 15.544C74.7567 16.824 74.4527 17.968 73.8447 18.976C73.2367 19.968 72.3967 20.752 71.3247 21.328C70.2527 21.904 69.0367 22.192 67.6767 22.192ZM67.6767 19.12C68.3007 19.12 68.8607 18.976 69.3567 18.688C69.8527 18.4 70.2447 17.992 70.5327 17.464C70.8207 16.92 70.9647 16.28 70.9647 15.544C70.9647 14.792 70.8207 14.152 70.5327 13.624C70.2447 13.096 69.8527 12.688 69.3567 12.4C68.8607 12.112 68.3007 11.968 67.6767 11.968C67.0527 11.968 66.4927 12.112 65.9967 12.4C65.5007 12.688 65.1007 13.096 64.7967 13.624C64.5087 14.152 64.3647 14.792 64.3647 15.544C64.3647 16.28 64.5087 16.92 64.7967 17.464C65.1007 17.992 65.5007 18.4 65.9967 18.688C66.4927 18.976 67.0527 19.12 67.6767 19.12ZM77.2593 22V9.088H80.8353V12.736L80.3313 11.68C80.7153 10.768 81.3313 10.08 82.1793 9.616C83.0273 9.136 84.0593 8.896 85.2753 8.896V12.352C85.1153 12.336 84.9713 12.328 84.8433 12.328C84.7153 12.312 84.5793 12.304 84.4353 12.304C83.4113 12.304 82.5793 12.6 81.9393 13.192C81.3153 13.768 81.0033 14.672 81.0033 15.904V22H77.2593ZM92.9517 22.192C91.7357 22.192 90.6397 21.92 89.6637 21.376C88.6877 20.816 87.9117 20.04 87.3357 19.048C86.7757 18.056 86.4957 16.888 86.4957 15.544C86.4957 14.184 86.7757 13.008 87.3357 12.016C87.9117 11.024 88.6877 10.256 89.6637 9.712C90.6397 9.168 91.7357 8.896 92.9517 8.896C94.0397 8.896 94.9917 9.136 95.8077 9.616C96.6237 10.096 97.2557 10.824 97.7037 11.8C98.1517 12.776 98.3757 14.024 98.3757 15.544C98.3757 17.048 98.1597 18.296 97.7277 19.288C97.2957 20.264 96.6717 20.992 95.8557 21.472C95.0557 21.952 94.0877 22.192 92.9517 22.192ZM93.5997 19.12C94.2077 19.12 94.7597 18.976 95.2557 18.688C95.7517 18.4 96.1437 17.992 96.4317 17.464C96.7357 16.92 96.8877 16.28 96.8877 15.544C96.8877 14.792 96.7357 14.152 96.4317 13.624C96.1437 13.096 95.7517 12.688 95.2557 12.4C94.7597 12.112 94.2077 11.968 93.5997 11.968C92.9757 11.968 92.4157 12.112 91.9197 12.4C91.4237 12.688 91.0237 13.096 90.7197 13.624C90.4317 14.152 90.2877 14.792 90.2877 15.544C90.2877 16.28 90.4317 16.92 90.7197 17.464C91.0237 17.992 91.4237 18.4 91.9197 18.688C92.4157 18.976 92.9757 19.12 93.5997 19.12ZM96.9837 22V19.36L97.0557 15.52L96.8157 11.704V4.192H100.56V22H96.9837ZM103.377 25.696L104.961 19.936L105.489 22.096C104.801 22.096 104.233 21.896 103.785 21.496C103.353 21.096 103.137 20.544 103.137 19.84C103.137 19.136 103.361 18.576 103.809 18.16C104.257 17.744 104.809 17.536 105.465 17.536C106.137 17.536 106.689 17.752 107.121 18.184C107.553 18.6 107.769 19.152 107.769 19.84C107.769 20.048 107.753 20.256 107.721 20.464C107.689 20.656 107.625 20.896 107.529 21.184C107.449 21.456 107.313 21.808 107.121 22.24L105.753 25.696H103.377ZM117.367 22V5.2H124.639C126.143 5.2 127.439 5.448 128.527 5.944C129.615 6.424 130.455 7.12 131.047 8.032C131.639 8.944 131.935 10.032 131.935 11.296C131.935 12.544 131.639 13.624 131.047 14.536C130.455 15.432 129.615 16.12 128.527 16.6C127.439 17.08 126.143 17.32 124.639 17.32H119.527L121.255 15.616V22H117.367ZM128.047 22L123.847 15.904H127.999L132.247 22H128.047ZM121.255 16.048L119.527 14.224H124.423C125.623 14.224 126.519 13.968 127.111 13.456C127.703 12.928 127.999 12.208 127.999 11.296C127.999 10.368 127.703 9.648 127.111 9.136C126.519 8.624 125.623 8.368 124.423 8.368H119.527L121.255 6.52V16.048ZM141.159 22.192C139.687 22.192 138.391 21.904 137.271 21.328C136.167 20.752 135.311 19.968 134.703 18.976C134.095 17.968 133.791 16.824 133.791 15.544C133.791 14.248 134.087 13.104 134.679 12.112C135.287 11.104 136.111 10.32 137.151 9.76C138.191 9.184 139.367 8.896 140.679 8.896C141.943 8.896 143.079 9.168 144.087 9.712C145.111 10.24 145.919 11.008 146.511 12.016C147.103 13.008 147.399 14.2 147.399 15.592C147.399 15.736 147.391 15.904 147.375 16.096C147.359 16.272 147.343 16.44 147.327 16.6H136.839V14.416H145.359L143.919 15.064C143.919 14.392 143.783 13.808 143.511 13.312C143.239 12.816 142.863 12.432 142.383 12.16C141.903 11.872 141.343 11.728 140.703 11.728C140.063 11.728 139.495 11.872 138.999 12.16C138.519 12.432 138.143 12.824 137.871 13.336C137.599 13.832 137.463 14.424 137.463 15.112V15.688C137.463 16.392 137.615 17.016 137.919 17.56C138.239 18.088 138.679 18.496 139.239 18.784C139.815 19.056 140.487 19.192 141.255 19.192C141.943 19.192 142.543 19.088 143.055 18.88C143.583 18.672 144.063 18.36 144.495 17.944L146.487 20.104C145.895 20.776 145.151 21.296 144.255 21.664C143.359 22.016 142.327 22.192 141.159 22.192ZM150.348 22V8.8C150.348 7.344 150.78 6.184 151.644 5.32C152.508 4.44 153.74 4 155.34 4C155.884 4 156.404 4.056 156.9 4.168C157.412 4.28 157.844 4.456 158.196 4.696L157.212 7.408C157.004 7.264 156.772 7.152 156.516 7.072C156.26 6.992 155.988 6.952 155.7 6.952C155.156 6.952 154.732 7.112 154.428 7.432C154.14 7.736 153.996 8.2 153.996 8.824V10.024L154.092 11.632V22H150.348ZM148.356 12.256V9.376H157.308V12.256H148.356ZM159.42 22V4.192H163.164V22H159.42ZM173.034 22.192C171.562 22.192 170.266 21.904 169.146 21.328C168.042 20.752 167.186 19.968 166.578 18.976C165.97 17.968 165.666 16.824 165.666 15.544C165.666 14.248 165.962 13.104 166.554 12.112C167.162 11.104 167.986 10.32 169.026 9.76C170.066 9.184 171.242 8.896 172.554 8.896C173.818 8.896 174.954 9.168 175.962 9.712C176.986 10.24 177.794 11.008 178.386 12.016C178.978 13.008 179.274 14.2 179.274 15.592C179.274 15.736 179.266 15.904 179.25 16.096C179.234 16.272 179.218 16.44 179.202 16.6H168.714V14.416H177.234L175.794 15.064C175.794 14.392 175.658 13.808 175.386 13.312C175.114 12.816 174.738 12.432 174.258 12.16C173.778 11.872 173.218 11.728 172.578 11.728C171.938 11.728 171.37 11.872 170.874 12.16C170.394 12.432 170.018 12.824 169.746 13.336C169.474 13.832 169.338 14.424 169.338 15.112V15.688C169.338 16.392 169.49 17.016 169.794 17.56C170.114 18.088 170.554 18.496 171.114 18.784C171.69 19.056 172.362 19.192 173.13 19.192C173.818 19.192 174.418 19.088 174.93 18.88C175.458 18.672 175.938 18.36 176.37 17.944L178.362 20.104C177.77 20.776 177.026 21.296 176.13 21.664C175.234 22.016 174.202 22.192 173.034 22.192ZM188.007 22.192C186.615 22.192 185.375 21.912 184.287 21.352C183.199 20.776 182.343 19.984 181.719 18.976C181.111 17.968 180.807 16.824 180.807 15.544C180.807 14.248 181.111 13.104 181.719 12.112C182.343 11.104 183.199 10.32 184.287 9.76C185.375 9.184 186.615 8.896 188.007 8.896C189.367 8.896 190.551 9.184 191.559 9.76C192.567 10.32 193.311 11.128 193.791 12.184L190.887 13.744C190.551 13.136 190.127 12.688 189.615 12.4C189.119 12.112 188.575 11.968 187.983 11.968C187.343 11.968 186.767 12.112 186.255 12.4C185.743 12.688 185.335 13.096 185.031 13.624C184.743 14.152 184.599 14.792 184.599 15.544C184.599 16.296 184.743 16.936 185.031 17.464C185.335 17.992 185.743 18.4 186.255 18.688C186.767 18.976 187.343 19.12 187.983 19.12C188.575 19.12 189.119 18.984 189.615 18.712C190.127 18.424 190.551 17.968 190.887 17.344L193.791 18.928C193.311 19.968 192.567 20.776 191.559 21.352C190.551 21.912 189.367 22.192 188.007 22.192ZM201.414 22.192C199.894 22.192 198.71 21.808 197.862 21.04C197.014 20.256 196.59 19.096 196.59 17.56V6.232H200.334V17.512C200.334 18.056 200.478 18.48 200.766 18.784C201.054 19.072 201.446 19.216 201.942 19.216C202.534 19.216 203.038 19.056 203.454 18.736L204.462 21.376C204.078 21.648 203.614 21.856 203.07 22C202.542 22.128 201.99 22.192 201.414 22.192ZM194.598 12.256V9.376H203.55V12.256H194.598ZM206.15 25.696L207.734 19.936L208.262 22.096C207.574 22.096 207.006 21.896 206.558 21.496C206.126 21.096 205.91 20.544 205.91 19.84C205.91 19.136 206.134 18.576 206.582 18.16C207.03 17.744 207.582 17.536 208.238 17.536C208.91 17.536 209.462 17.752 209.894 18.184C210.326 18.6 210.542 19.152 210.542 19.84C210.542 20.048 210.526 20.256 210.494 20.464C210.462 20.656 210.398 20.896 210.302 21.184C210.222 21.456 210.086 21.808 209.894 22.24L208.526 25.696H206.15ZM220.14 22V5.2H227.412C228.916 5.2 230.212 5.448 231.3 5.944C232.388 6.424 233.228 7.12 233.82 8.032C234.412 8.944 234.708 10.032 234.708 11.296C234.708 12.544 234.412 13.624 233.82 14.536C233.228 15.432 232.388 16.12 231.3 16.6C230.212 17.08 228.916 17.32 227.412 17.32H222.3L224.028 15.616V22H220.14ZM230.82 22L226.62 15.904H230.772L235.02 22H230.82ZM224.028 16.048L222.3 14.224H227.196C228.396 14.224 229.292 13.968 229.884 13.456C230.476 12.928 230.772 12.208 230.772 11.296C230.772 10.368 230.476 9.648 229.884 9.136C229.292 8.624 228.396 8.368 227.196 8.368H222.3L224.028 6.52V16.048ZM243.933 22.192C242.461 22.192 241.165 21.904 240.045 21.328C238.941 20.752 238.085 19.968 237.477 18.976C236.869 17.968 236.565 16.824 236.565 15.544C236.565 14.248 236.861 13.104 237.453 12.112C238.061 11.104 238.885 10.32 239.925 9.76C240.965 9.184 242.141 8.896 243.453 8.896C244.717 8.896 245.853 9.168 246.861 9.712C247.885 10.24 248.693 11.008 249.285 12.016C249.877 13.008 250.173 14.2 250.173 15.592C250.173 15.736 250.165 15.904 250.149 16.096C250.133 16.272 250.117 16.44 250.101 16.6H239.613V14.416H248.133L246.693 15.064C246.693 14.392 246.557 13.808 246.285 13.312C246.013 12.816 245.637 12.432 245.157 12.16C244.677 11.872 244.117 11.728 243.477 11.728C242.837 11.728 242.269 11.872 241.773 12.16C241.293 12.432 240.917 12.824 240.645 13.336C240.373 13.832 240.237 14.424 240.237 15.112V15.688C240.237 16.392 240.389 17.016 240.693 17.56C241.013 18.088 241.453 18.496 242.013 18.784C242.589 19.056 243.261 19.192 244.029 19.192C244.717 19.192 245.317 19.088 245.829 18.88C246.357 18.672 246.837 18.36 247.269 17.944L249.261 20.104C248.669 20.776 247.925 21.296 247.029 21.664C246.133 22.016 245.101 22.192 243.933 22.192ZM258.738 26.848C257.522 26.848 256.346 26.696 255.21 26.392C254.09 26.104 253.154 25.664 252.402 25.072L253.89 22.384C254.434 22.832 255.122 23.184 255.954 23.44C256.802 23.712 257.634 23.848 258.45 23.848C259.778 23.848 260.738 23.552 261.33 22.96C261.938 22.368 262.242 21.488 262.242 20.32V18.376L262.482 15.136L262.434 11.872V9.088H265.986V19.84C265.986 22.24 265.362 24.008 264.114 25.144C262.866 26.28 261.074 26.848 258.738 26.848ZM258.162 21.376C256.962 21.376 255.874 21.12 254.898 20.608C253.938 20.08 253.162 19.352 252.57 18.424C251.994 17.48 251.706 16.384 251.706 15.136C251.706 13.872 251.994 12.776 252.57 11.848C253.162 10.904 253.938 10.176 254.898 9.664C255.874 9.152 256.962 8.896 258.162 8.896C259.25 8.896 260.21 9.12 261.042 9.568C261.874 10 262.522 10.68 262.986 11.608C263.45 12.52 263.682 13.696 263.682 15.136C263.682 16.56 263.45 17.736 262.986 18.664C262.522 19.576 261.874 20.256 261.042 20.704C260.21 21.152 259.25 21.376 258.162 21.376ZM258.906 18.304C259.562 18.304 260.146 18.176 260.658 17.92C261.17 17.648 261.57 17.272 261.858 16.792C262.146 16.312 262.29 15.76 262.29 15.136C262.29 14.496 262.146 13.944 261.858 13.48C261.57 13 261.17 12.632 260.658 12.376C260.146 12.104 259.562 11.968 258.906 11.968C258.25 11.968 257.666 12.104 257.154 12.376C256.642 12.632 256.234 13 255.93 13.48C255.642 13.944 255.498 14.496 255.498 15.136C255.498 15.76 255.642 16.312 255.93 16.792C256.234 17.272 256.642 17.648 257.154 17.92C257.666 18.176 258.25 18.304 258.906 18.304ZM277.39 22V19.48L277.15 18.928V14.416C277.15 13.616 276.902 12.992 276.406 12.544C275.926 12.096 275.182 11.872 274.174 11.872C273.486 11.872 272.806 11.984 272.134 12.208C271.478 12.416 270.918 12.704 270.454 13.072L269.11 10.456C269.814 9.96 270.662 9.576 271.654 9.304C272.646 9.032 273.654 8.896 274.678 8.896C276.646 8.896 278.174 9.36 279.262 10.288C280.35 11.216 280.894 12.664 280.894 14.632V22H277.39ZM273.454 22.192C272.446 22.192 271.582 22.024 270.862 21.688C270.142 21.336 269.59 20.864 269.206 20.272C268.822 19.68 268.63 19.016 268.63 18.28C268.63 17.512 268.814 16.84 269.182 16.264C269.566 15.688 270.166 15.24 270.982 14.92C271.798 14.584 272.862 14.416 274.174 14.416H277.606V16.6H274.582C273.702 16.6 273.094 16.744 272.758 17.032C272.438 17.32 272.278 17.68 272.278 18.112C272.278 18.592 272.462 18.976 272.83 19.264C273.214 19.536 273.734 19.672 274.39 19.672C275.014 19.672 275.574 19.528 276.07 19.24C276.566 18.936 276.926 18.496 277.15 17.92L277.726 19.648C277.454 20.48 276.958 21.112 276.238 21.544C275.518 21.976 274.59 22.192 273.454 22.192ZM284.283 22V9.088H288.027V22H284.283ZM286.155 7.288C285.467 7.288 284.907 7.088 284.475 6.688C284.043 6.288 283.827 5.792 283.827 5.2C283.827 4.608 284.043 4.112 284.475 3.712C284.907 3.312 285.467 3.112 286.155 3.112C286.843 3.112 287.403 3.304 287.835 3.688C288.267 4.056 288.483 4.536 288.483 5.128C288.483 5.752 288.267 6.272 287.835 6.688C287.419 7.088 286.859 7.288 286.155 7.288ZM299.349 8.896C300.373 8.896 301.285 9.104 302.085 9.52C302.901 9.92 303.541 10.544 304.005 11.392C304.469 12.224 304.701 13.296 304.701 14.608V22H300.957V15.184C300.957 14.144 300.725 13.376 300.261 12.88C299.813 12.384 299.173 12.136 298.341 12.136C297.749 12.136 297.213 12.264 296.733 12.52C296.269 12.76 295.901 13.136 295.629 13.648C295.373 14.16 295.245 14.816 295.245 15.616V22H291.501V9.088H295.077V12.664L294.405 11.584C294.869 10.72 295.533 10.056 296.397 9.592C297.261 9.128 298.245 8.896 299.349 8.896Z" fill="url(#paint0_linear_485_22085)"/>
<path d="M6.66 48.14C5.47333 48.14 4.43333 47.9067 3.54 47.44C2.66 46.96 1.97333 46.3067 1.48 45.48C1 44.6533 0.76 43.7133 0.76 42.66C0.76 41.5933 0.993333 40.6533 1.46 39.84C1.94 39.0133 2.59333 38.3667 3.42 37.9C4.26 37.4333 5.21333 37.2 6.28 37.2C7.32 37.2 8.24667 37.4267 9.06 37.88C9.87333 38.3333 10.5133 38.9733 10.98 39.8C11.4467 40.6267 11.68 41.6 11.68 42.72C11.68 42.8267 11.6733 42.9467 11.66 43.08C11.66 43.2133 11.6533 43.34 11.64 43.46H2.74V41.8H10.32L9.34 42.32C9.35333 41.7067 9.22667 41.1667 8.96 40.7C8.69333 40.2333 8.32667 39.8667 7.86 39.6C7.40667 39.3333 6.88 39.2 6.28 39.2C5.66667 39.2 5.12667 39.3333 4.66 39.6C4.20667 39.8667 3.84667 40.24 3.58 40.72C3.32667 41.1867 3.2 41.74 3.2 42.38V42.78C3.2 43.42 3.34667 43.9867 3.64 44.48C3.93333 44.9733 4.34667 45.3533 4.88 45.62C5.41333 45.8867 6.02667 46.02 6.72 46.02C7.32 46.02 7.86 45.9267 8.34 45.74C8.82 45.5533 9.24667 45.26 9.62 44.86L10.96 46.4C10.48 46.96 9.87333 47.3933 9.14 47.7C8.42 47.9933 7.59333 48.14 6.66 48.14ZM27.5614 37.2C28.4147 37.2 29.1681 37.3667 29.8214 37.7C30.4881 38.0333 31.0081 38.5467 31.3814 39.24C31.7547 39.92 31.9414 40.8 31.9414 41.88V48H29.4414V42.2C29.4414 41.2533 29.2347 40.5467 28.8214 40.08C28.4081 39.6133 27.8147 39.38 27.0414 39.38C26.4947 39.38 26.0081 39.5 25.5814 39.74C25.1681 39.98 24.8414 40.3333 24.6014 40.8C24.3747 41.2667 24.2614 41.86 24.2614 42.58V48H21.7614V42.2C21.7614 41.2533 21.5547 40.5467 21.1414 40.08C20.7281 39.6133 20.1347 39.38 19.3614 39.38C18.8147 39.38 18.3281 39.5 17.9014 39.74C17.4881 39.98 17.1614 40.3333 16.9214 40.8C16.6947 41.2667 16.5814 41.86 16.5814 42.58V48H14.0814V37.32H16.4614V40.16L16.0414 39.32C16.4014 38.6267 16.9214 38.1 17.6014 37.74C18.2947 37.38 19.0814 37.2 19.9614 37.2C20.9614 37.2 21.8281 37.4467 22.5614 37.94C23.3081 38.4333 23.8014 39.18 24.0414 40.18L23.0614 39.84C23.4081 39.04 23.9814 38.4 24.7814 37.92C25.5814 37.44 26.5081 37.2 27.5614 37.2ZM41.0561 48.14C40.1894 48.14 39.3961 47.94 38.6761 47.54C37.9694 47.14 37.4028 46.54 36.9761 45.74C36.5628 44.9267 36.3561 43.9 36.3561 42.66C36.3561 41.4067 36.5561 40.38 36.9561 39.58C37.3694 38.78 37.9294 38.1867 38.6361 37.8C39.3428 37.4 40.1494 37.2 41.0561 37.2C42.1094 37.2 43.0361 37.4267 43.8361 37.88C44.6494 38.3333 45.2894 38.9667 45.7561 39.78C46.2361 40.5933 46.4761 41.5533 46.4761 42.66C46.4761 43.7667 46.2361 44.7333 45.7561 45.56C45.2894 46.3733 44.6494 47.0067 43.8361 47.46C43.0361 47.9133 42.1094 48.14 41.0561 48.14ZM35.1361 51.88V37.32H37.5161V39.84L37.4361 42.68L37.6361 45.52V51.88H35.1361ZM40.7761 46C41.3761 46 41.9094 45.8667 42.3761 45.6C42.8561 45.3333 43.2361 44.9467 43.5161 44.44C43.7961 43.9333 43.9361 43.34 43.9361 42.66C43.9361 41.9667 43.7961 41.3733 43.5161 40.88C43.2361 40.3733 42.8561 39.9867 42.3761 39.72C41.9094 39.4533 41.3761 39.32 40.7761 39.32C40.1761 39.32 39.6361 39.4533 39.1561 39.72C38.6761 39.9867 38.2961 40.3733 38.0161 40.88C37.7361 41.3733 37.5961 41.9667 37.5961 42.66C37.5961 43.34 37.7361 43.9333 38.0161 44.44C38.2961 44.9467 38.6761 45.3333 39.1561 45.6C39.6361 45.8667 40.1761 46 40.7761 46ZM53.647 48.14C52.5537 48.14 51.5804 47.9067 50.727 47.44C49.8737 46.96 49.2004 46.3067 48.707 45.48C48.2137 44.6533 47.967 43.7133 47.967 42.66C47.967 41.5933 48.2137 40.6533 48.707 39.84C49.2004 39.0133 49.8737 38.3667 50.727 37.9C51.5804 37.4333 52.5537 37.2 53.647 37.2C54.7537 37.2 55.7337 37.4333 56.587 37.9C57.4537 38.3667 58.127 39.0067 58.607 39.82C59.1004 40.6333 59.347 41.58 59.347 42.66C59.347 43.7133 59.1004 44.6533 58.607 45.48C58.127 46.3067 57.4537 46.96 56.587 47.44C55.7337 47.9067 54.7537 48.14 53.647 48.14ZM53.647 46C54.2604 46 54.807 45.8667 55.287 45.6C55.767 45.3333 56.1404 44.9467 56.407 44.44C56.687 43.9333 56.827 43.34 56.827 42.66C56.827 41.9667 56.687 41.3733 56.407 40.88C56.1404 40.3733 55.767 39.9867 55.287 39.72C54.807 39.4533 54.267 39.32 53.667 39.32C53.0537 39.32 52.507 39.4533 52.027 39.72C51.5604 39.9867 51.187 40.3733 50.907 40.88C50.627 41.3733 50.487 41.9667 50.487 42.66C50.487 43.34 50.627 43.9333 50.907 44.44C51.187 44.9467 51.5604 45.3333 52.027 45.6C52.507 45.8667 53.047 46 53.647 46ZM63.8047 48L59.8847 37.32H62.2447L65.6047 46.74H64.4847L68.0047 37.32H70.1047L73.5247 46.74H72.4247L75.8847 37.32H78.1047L74.1647 48H71.7647L68.6447 39.66H69.3847L66.2047 48H63.8047ZM84.5506 48.14C83.364 48.14 82.324 47.9067 81.4306 47.44C80.5506 46.96 79.864 46.3067 79.3706 45.48C78.8906 44.6533 78.6506 43.7133 78.6506 42.66C78.6506 41.5933 78.884 40.6533 79.3506 39.84C79.8306 39.0133 80.484 38.3667 81.3106 37.9C82.1506 37.4333 83.104 37.2 84.1706 37.2C85.2106 37.2 86.1373 37.4267 86.9506 37.88C87.764 38.3333 88.404 38.9733 88.8706 39.8C89.3373 40.6267 89.5706 41.6 89.5706 42.72C89.5706 42.8267 89.564 42.9467 89.5506 43.08C89.5506 43.2133 89.544 43.34 89.5306 43.46H80.6306V41.8H88.2106L87.2306 42.32C87.244 41.7067 87.1173 41.1667 86.8506 40.7C86.584 40.2333 86.2173 39.8667 85.7506 39.6C85.2973 39.3333 84.7706 39.2 84.1706 39.2C83.5573 39.2 83.0173 39.3333 82.5506 39.6C82.0973 39.8667 81.7373 40.24 81.4706 40.72C81.2173 41.1867 81.0906 41.74 81.0906 42.38V42.78C81.0906 43.42 81.2373 43.9867 81.5306 44.48C81.824 44.9733 82.2373 45.3533 82.7706 45.62C83.304 45.8867 83.9173 46.02 84.6106 46.02C85.2106 46.02 85.7506 45.9267 86.2306 45.74C86.7106 45.5533 87.1373 45.26 87.5106 44.86L88.8506 46.4C88.3706 46.96 87.764 47.3933 87.0306 47.7C86.3106 47.9933 85.484 48.14 84.5506 48.14ZM91.972 48V37.32H94.352V40.26L94.072 39.4C94.392 38.68 94.892 38.1333 95.572 37.76C96.2654 37.3867 97.1254 37.2 98.152 37.2V39.58C98.0454 39.5533 97.9454 39.54 97.852 39.54C97.7587 39.5267 97.6654 39.52 97.572 39.52C96.6254 39.52 95.872 39.8 95.312 40.36C94.752 40.9067 94.472 41.7267 94.472 42.82V48H91.972ZM100.273 48V37.32H102.773V48H100.273ZM101.533 35.56C101.066 35.56 100.679 35.4133 100.373 35.12C100.079 34.8267 99.9328 34.4733 99.9328 34.06C99.9328 33.6333 100.079 33.28 100.373 33C100.679 32.7067 101.066 32.56 101.533 32.56C101.999 32.56 102.379 32.7 102.673 32.98C102.979 33.2467 103.133 33.5867 103.133 34C103.133 34.44 102.986 34.8133 102.693 35.12C102.399 35.4133 102.013 35.56 101.533 35.56ZM112.114 37.2C112.967 37.2 113.727 37.3667 114.394 37.7C115.074 38.0333 115.607 38.5467 115.994 39.24C116.381 39.92 116.574 40.8 116.574 41.88V48H114.074V42.2C114.074 41.2533 113.847 40.5467 113.394 40.08C112.954 39.6133 112.334 39.38 111.534 39.38C110.947 39.38 110.427 39.5 109.974 39.74C109.521 39.98 109.167 40.34 108.914 40.82C108.674 41.2867 108.554 41.88 108.554 42.6V48H106.054V37.32H108.434V40.2L108.014 39.32C108.387 38.64 108.927 38.12 109.634 37.76C110.354 37.3867 111.181 37.2 112.114 37.2ZM124.605 52.02C123.618 52.02 122.652 51.8867 121.705 51.62C120.772 51.3667 120.005 50.9933 119.405 50.5L120.525 48.62C120.992 49.0067 121.578 49.3133 122.285 49.54C123.005 49.78 123.732 49.9 124.465 49.9C125.638 49.9 126.498 49.6267 127.045 49.08C127.592 48.5467 127.865 47.74 127.865 46.66V44.76L128.065 42.34L127.985 39.92V37.32H130.365V46.38C130.365 48.3133 129.872 49.7333 128.885 50.64C127.898 51.56 126.472 52.02 124.605 52.02ZM124.285 47.52C123.272 47.52 122.352 47.3067 121.525 46.88C120.712 46.44 120.065 45.8333 119.585 45.06C119.118 44.2867 118.885 43.38 118.885 42.34C118.885 41.3133 119.118 40.4133 119.585 39.64C120.065 38.8667 120.712 38.2667 121.525 37.84C122.352 37.4133 123.272 37.2 124.285 37.2C125.192 37.2 126.005 37.38 126.725 37.74C127.445 38.1 128.018 38.66 128.445 39.42C128.885 40.18 129.105 41.1533 129.105 42.34C129.105 43.5267 128.885 44.5067 128.445 45.28C128.018 46.04 127.445 46.6067 126.725 46.98C126.005 47.34 125.192 47.52 124.285 47.52ZM124.665 45.4C125.292 45.4 125.852 45.2733 126.345 45.02C126.838 44.7533 127.218 44.3933 127.485 43.94C127.765 43.4733 127.905 42.94 127.905 42.34C127.905 41.74 127.765 41.2133 127.485 40.76C127.218 40.2933 126.838 39.94 126.345 39.7C125.852 39.4467 125.292 39.32 124.665 39.32C124.038 39.32 123.472 39.4467 122.965 39.7C122.472 39.94 122.085 40.2933 121.805 40.76C121.538 41.2133 121.405 41.74 121.405 42.34C121.405 42.94 121.538 43.4733 121.805 43.94C122.085 44.3933 122.472 44.7533 122.965 45.02C123.472 45.2733 124.038 45.4 124.665 45.4ZM142.859 48V42.46L143.439 44.06L137.359 34H140.139L145.019 42.1H143.459L148.379 34H150.939L144.859 44.06L145.459 42.46V48H142.859ZM158.596 48.2C157.503 48.2 156.496 48.02 155.576 47.66C154.656 47.3 153.856 46.8 153.176 46.16C152.496 45.5067 151.97 44.7467 151.596 43.88C151.223 43 151.036 42.04 151.036 41C151.036 39.96 151.223 39.0067 151.596 38.14C151.97 37.26 152.496 36.5 153.176 35.86C153.856 35.2067 154.656 34.7 155.576 34.34C156.496 33.98 157.496 33.8 158.576 33.8C159.67 33.8 160.67 33.98 161.576 34.34C162.496 34.7 163.296 35.2067 163.976 35.86C164.656 36.5 165.183 37.26 165.556 38.14C165.93 39.0067 166.116 39.96 166.116 41C166.116 42.04 165.93 43 165.556 43.88C165.183 44.76 164.656 45.52 163.976 46.16C163.296 46.8 162.496 47.3 161.576 47.66C160.67 48.02 159.676 48.2 158.596 48.2ZM158.576 45.92C159.283 45.92 159.936 45.8 160.536 45.56C161.136 45.32 161.656 44.98 162.096 44.54C162.536 44.0867 162.876 43.5667 163.116 42.98C163.37 42.38 163.496 41.72 163.496 41C163.496 40.28 163.37 39.6267 163.116 39.04C162.876 38.44 162.536 37.92 162.096 37.48C161.656 37.0267 161.136 36.68 160.536 36.44C159.936 36.2 159.283 36.08 158.576 36.08C157.87 36.08 157.216 36.2 156.616 36.44C156.03 36.68 155.51 37.0267 155.056 37.48C154.616 37.92 154.27 38.44 154.016 39.04C153.776 39.6267 153.656 40.28 153.656 41C153.656 41.7067 153.776 42.36 154.016 42.96C154.27 43.56 154.616 44.0867 155.056 44.54C155.496 44.98 156.016 45.32 156.616 45.56C157.216 45.8 157.87 45.92 158.576 45.92ZM174.892 48.2C172.972 48.2 171.466 47.66 170.372 46.58C169.292 45.5 168.752 43.94 168.752 41.9V34H171.352V41.8C171.352 43.24 171.659 44.2867 172.272 44.94C172.899 45.5933 173.779 45.92 174.912 45.92C176.046 45.92 176.919 45.5933 177.532 44.94C178.146 44.2867 178.452 43.24 178.452 41.8V34H181.012V41.9C181.012 43.94 180.466 45.5 179.372 46.58C178.292 47.66 176.799 48.2 174.892 48.2ZM193.961 48.14C192.787 48.14 191.881 47.84 191.241 47.24C190.601 46.6267 190.281 45.7267 190.281 44.54V34.96H192.781V44.48C192.781 44.9867 192.907 45.38 193.161 45.66C193.427 45.94 193.794 46.08 194.261 46.08C194.821 46.08 195.287 45.9333 195.661 45.64L196.361 47.42C196.067 47.66 195.707 47.84 195.281 47.96C194.854 48.08 194.414 48.14 193.961 48.14ZM188.521 39.4V37.4H195.641V39.4H188.521ZM202.866 48.14C201.772 48.14 200.799 47.9067 199.946 47.44C199.092 46.96 198.419 46.3067 197.926 45.48C197.432 44.6533 197.186 43.7133 197.186 42.66C197.186 41.5933 197.432 40.6533 197.926 39.84C198.419 39.0133 199.092 38.3667 199.946 37.9C200.799 37.4333 201.772 37.2 202.866 37.2C203.972 37.2 204.952 37.4333 205.806 37.9C206.672 38.3667 207.346 39.0067 207.826 39.82C208.319 40.6333 208.566 41.58 208.566 42.66C208.566 43.7133 208.319 44.6533 207.826 45.48C207.346 46.3067 206.672 46.96 205.806 47.44C204.952 47.9067 203.972 48.14 202.866 48.14ZM202.866 46C203.479 46 204.026 45.8667 204.506 45.6C204.986 45.3333 205.359 44.9467 205.626 44.44C205.906 43.9333 206.046 43.34 206.046 42.66C206.046 41.9667 205.906 41.3733 205.626 40.88C205.359 40.3733 204.986 39.9867 204.506 39.72C204.026 39.4533 203.486 39.32 202.886 39.32C202.272 39.32 201.726 39.4533 201.246 39.72C200.779 39.9867 200.406 40.3733 200.126 40.88C199.846 41.3733 199.706 41.9667 199.706 42.66C199.706 43.34 199.846 43.9333 200.126 44.44C200.406 44.9467 200.779 45.3333 201.246 45.6C201.726 45.8667 202.266 46 202.866 46ZM216.484 48V33.16H218.984V48H216.484ZM222.265 48V37.32H224.765V48H222.265ZM223.525 35.56C223.058 35.56 222.672 35.4133 222.365 35.12C222.072 34.8267 221.925 34.4733 221.925 34.06C221.925 33.6333 222.072 33.28 222.365 33C222.672 32.7067 223.058 32.56 223.525 32.56C223.992 32.56 224.372 32.7 224.665 32.98C224.972 33.2467 225.125 33.5867 225.125 34C225.125 34.44 224.978 34.8133 224.685 35.12C224.392 35.4133 224.005 35.56 223.525 35.56ZM230.886 48L226.306 37.32H228.906L232.846 46.74H231.566L235.646 37.32H238.046L233.466 48H230.886ZM244.336 48.14C243.149 48.14 242.109 47.9067 241.216 47.44C240.336 46.96 239.649 46.3067 239.156 45.48C238.676 44.6533 238.436 43.7133 238.436 42.66C238.436 41.5933 238.669 40.6533 239.136 39.84C239.616 39.0133 240.269 38.3667 241.096 37.9C241.936 37.4333 242.889 37.2 243.956 37.2C244.996 37.2 245.922 37.4267 246.736 37.88C247.549 38.3333 248.189 38.9733 248.656 39.8C249.122 40.6267 249.356 41.6 249.356 42.72C249.356 42.8267 249.349 42.9467 249.336 43.08C249.336 43.2133 249.329 43.34 249.316 43.46H240.416V41.8H247.996L247.016 42.32C247.029 41.7067 246.902 41.1667 246.636 40.7C246.369 40.2333 246.002 39.8667 245.536 39.6C245.082 39.3333 244.556 39.2 243.956 39.2C243.342 39.2 242.802 39.3333 242.336 39.6C241.882 39.8667 241.522 40.24 241.256 40.72C241.002 41.1867 240.876 41.74 240.876 42.38V42.78C240.876 43.42 241.022 43.9867 241.316 44.48C241.609 44.9733 242.022 45.3533 242.556 45.62C243.089 45.8867 243.702 46.02 244.396 46.02C244.996 46.02 245.536 45.9267 246.016 45.74C246.496 45.5533 246.922 45.26 247.296 44.86L248.636 46.4C248.156 46.96 247.549 47.3933 246.816 47.7C246.096 47.9933 245.269 48.14 244.336 48.14ZM257.625 48V36.72C257.625 35.6 257.951 34.7067 258.605 34.04C259.271 33.36 260.218 33.02 261.445 33.02C261.885 33.02 262.298 33.0667 262.685 33.16C263.085 33.2533 263.418 33.4 263.685 33.6L263.005 35.48C262.818 35.3333 262.605 35.2267 262.365 35.16C262.125 35.08 261.878 35.04 261.625 35.04C261.105 35.04 260.711 35.1867 260.445 35.48C260.178 35.76 260.045 36.1867 260.045 36.76V37.96L260.125 39.08V48H257.625ZM255.865 39.4V37.4H262.985V39.4H255.865ZM264.687 48V37.32H267.067V40.26L266.787 39.4C267.107 38.68 267.607 38.1333 268.287 37.76C268.98 37.3867 269.84 37.2 270.867 37.2V39.58C270.76 39.5533 270.66 39.54 270.567 39.54C270.474 39.5267 270.38 39.52 270.287 39.52C269.34 39.52 268.587 39.8 268.027 40.36C267.467 40.9067 267.187 41.7267 267.187 42.82V48H264.687ZM277.91 48.14C276.723 48.14 275.683 47.9067 274.79 47.44C273.91 46.96 273.223 46.3067 272.73 45.48C272.25 44.6533 272.01 43.7133 272.01 42.66C272.01 41.5933 272.243 40.6533 272.71 39.84C273.19 39.0133 273.843 38.3667 274.67 37.9C275.51 37.4333 276.463 37.2 277.53 37.2C278.57 37.2 279.497 37.4267 280.31 37.88C281.123 38.3333 281.763 38.9733 282.23 39.8C282.697 40.6267 282.93 41.6 282.93 42.72C282.93 42.8267 282.923 42.9467 282.91 43.08C282.91 43.2133 282.903 43.34 282.89 43.46H273.99V41.8H281.57L280.59 42.32C280.603 41.7067 280.477 41.1667 280.21 40.7C279.943 40.2333 279.577 39.8667 279.11 39.6C278.657 39.3333 278.13 39.2 277.53 39.2C276.917 39.2 276.377 39.3333 275.91 39.6C275.457 39.8667 275.097 40.24 274.83 40.72C274.577 41.1867 274.45 41.74 274.45 42.38V42.78C274.45 43.42 274.597 43.9867 274.89 44.48C275.183 44.9733 275.597 45.3533 276.13 45.62C276.663 45.8867 277.277 46.02 277.97 46.02C278.57 46.02 279.11 45.9267 279.59 45.74C280.07 45.5533 280.497 45.26 280.87 44.86L282.21 46.4C281.73 46.96 281.123 47.3933 280.39 47.7C279.67 47.9933 278.843 48.14 277.91 48.14ZM290.351 48.14C289.165 48.14 288.125 47.9067 287.231 47.44C286.351 46.96 285.665 46.3067 285.171 45.48C284.691 44.6533 284.451 43.7133 284.451 42.66C284.451 41.5933 284.685 40.6533 285.151 39.84C285.631 39.0133 286.285 38.3667 287.111 37.9C287.951 37.4333 288.905 37.2 289.971 37.2C291.011 37.2 291.938 37.4267 292.751 37.88C293.565 38.3333 294.205 38.9733 294.671 39.8C295.138 40.6267 295.371 41.6 295.371 42.72C295.371 42.8267 295.365 42.9467 295.351 43.08C295.351 43.2133 295.345 43.34 295.331 43.46H286.431V41.8H294.011L293.031 42.32C293.045 41.7067 292.918 41.1667 292.651 40.7C292.385 40.2333 292.018 39.8667 291.551 39.6C291.098 39.3333 290.571 39.2 289.971 39.2C289.358 39.2 288.818 39.3333 288.351 39.6C287.898 39.8667 287.538 40.24 287.271 40.72C287.018 41.1867 286.891 41.74 286.891 42.38V42.78C286.891 43.42 287.038 43.9867 287.331 44.48C287.625 44.9733 288.038 45.3533 288.571 45.62C289.105 45.8867 289.718 46.02 290.411 46.02C291.011 46.02 291.551 45.9267 292.031 45.74C292.511 45.5533 292.938 45.26 293.311 44.86L294.651 46.4C294.171 46.96 293.565 47.3933 292.831 47.7C292.111 47.9933 291.285 48.14 290.351 48.14ZM297.773 48V33.16H300.273V48H297.773ZM304.434 52.02C303.914 52.02 303.394 51.9333 302.874 51.76C302.354 51.5867 301.921 51.3467 301.574 51.04L302.574 49.2C302.827 49.4267 303.114 49.6067 303.434 49.74C303.754 49.8733 304.081 49.94 304.414 49.94C304.867 49.94 305.234 49.8267 305.514 49.6C305.794 49.3733 306.054 48.9933 306.294 48.46L306.914 47.06L307.114 46.76L311.154 37.32H313.554L308.554 48.86C308.221 49.66 307.847 50.2933 307.434 50.76C307.034 51.2267 306.581 51.5533 306.074 51.74C305.581 51.9267 305.034 52.02 304.434 52.02ZM306.634 48.38L301.814 37.32H304.414L308.334 46.54L306.634 48.38Z" fill="url(#paint1_linear_485_22085)"/>

</svg>
