<svg width="158" height="15" viewBox="0 0 158 15" fill="none" xmlns="http://www.w3.org/2000/svg">
<path d="M1.89 14V3.614C1.89 2.678 2.16 1.934 2.7 1.382C3.252 0.817999 4.032 0.536 5.04 0.536C5.412 0.536 5.766 0.584 6.102 0.68C6.45 0.763999 6.744 0.901999 6.984 1.094L6.462 2.408C6.282 2.264 6.078 2.156 5.85 2.084C5.622 2 5.382 1.958 5.13 1.958C4.626 1.958 4.242 2.102 3.978 2.39C3.714 2.666 3.582 3.08 3.582 3.632V4.91L3.618 5.702V14H1.89ZM0.27 5.882V4.46H6.354V5.882H0.27ZM7.9837 14V4.46H9.6397V7.052L9.4777 6.404C9.7417 5.744 10.1857 5.24 10.8097 4.892C11.4337 4.544 12.2017 4.37 13.1137 4.37V6.044C13.0417 6.032 12.9697 6.026 12.8977 6.026C12.8377 6.026 12.7777 6.026 12.7177 6.026C11.7937 6.026 11.0617 6.302 10.5217 6.854C9.9817 7.406 9.7117 8.204 9.7117 9.248V14H7.9837ZM19.4036 14.108C18.3836 14.108 17.4836 13.898 16.7036 13.478C15.9356 13.058 15.3356 12.482 14.9036 11.75C14.4836 11.018 14.2736 10.178 14.2736 9.23C14.2736 8.282 14.4776 7.442 14.8856 6.71C15.3056 5.978 15.8756 5.408 16.5956 5C17.3276 4.58 18.1496 4.37 19.0616 4.37C19.9856 4.37 20.8016 4.574 21.5096 4.982C22.2176 5.39 22.7696 5.966 23.1656 6.71C23.5736 7.442 23.7776 8.3 23.7776 9.284C23.7776 9.356 23.7716 9.44 23.7596 9.536C23.7596 9.632 23.7536 9.722 23.7416 9.806H15.6236V8.564H22.8416L22.1396 8.996C22.1516 8.384 22.0256 7.838 21.7616 7.358C21.4976 6.878 21.1316 6.506 20.6636 6.242C20.2076 5.966 19.6736 5.828 19.0616 5.828C18.4616 5.828 17.9276 5.966 17.4596 6.242C16.9916 6.506 16.6256 6.884 16.3616 7.376C16.0976 7.856 15.9656 8.408 15.9656 9.032V9.32C15.9656 9.956 16.1096 10.526 16.3976 11.03C16.6976 11.522 17.1116 11.906 17.6396 12.182C18.1676 12.458 18.7736 12.596 19.4576 12.596C20.0216 12.596 20.5316 12.5 20.9876 12.308C21.4556 12.116 21.8636 11.828 22.2116 11.444L23.1656 12.56C22.7336 13.064 22.1936 13.448 21.5456 13.712C20.9096 13.976 20.1956 14.108 19.4036 14.108ZM30.4251 14.108C29.4051 14.108 28.5051 13.898 27.7251 13.478C26.9571 13.058 26.3571 12.482 25.9251 11.75C25.5051 11.018 25.2951 10.178 25.2951 9.23C25.2951 8.282 25.4991 7.442 25.9071 6.71C26.3271 5.978 26.8971 5.408 27.6171 5C28.3491 4.58 29.1711 4.37 30.0831 4.37C31.0071 4.37 31.8231 4.574 32.5311 4.982C33.2391 5.39 33.7911 5.966 34.1871 6.71C34.5951 7.442 34.7991 8.3 34.7991 9.284C34.7991 9.356 34.7931 9.44 34.7811 9.536C34.7811 9.632 34.7751 9.722 34.7631 9.806H26.6451V8.564H33.8631L33.1611 8.996C33.1731 8.384 33.0471 7.838 32.7831 7.358C32.5191 6.878 32.1531 6.506 31.6851 6.242C31.2291 5.966 30.6951 5.828 30.0831 5.828C29.4831 5.828 28.9491 5.966 28.4811 6.242C28.0131 6.506 27.6471 6.884 27.3831 7.376C27.1191 7.856 26.9871 8.408 26.9871 9.032V9.32C26.9871 9.956 27.1311 10.526 27.4191 11.03C27.7191 11.522 28.1331 11.906 28.6611 12.182C29.1891 12.458 29.7951 12.596 30.4791 12.596C31.0431 12.596 31.5531 12.5 32.0091 12.308C32.4771 12.116 32.8851 11.828 33.2331 11.444L34.1871 12.56C33.7551 13.064 33.2151 13.448 32.5671 13.712C31.9311 13.976 31.2171 14.108 30.4251 14.108ZM37.4505 14V3.614C37.4505 2.678 37.7205 1.934 38.2605 1.382C38.8125 0.817999 39.5925 0.536 40.6005 0.536C40.9725 0.536 41.3265 0.584 41.6625 0.68C42.0105 0.763999 42.3045 0.901999 42.5445 1.094L42.0225 2.408C41.8425 2.264 41.6385 2.156 41.4105 2.084C41.1825 2 40.9425 1.958 40.6905 1.958C40.1865 1.958 39.8025 2.102 39.5385 2.39C39.2745 2.666 39.1425 3.08 39.1425 3.632V4.91L39.1785 5.702V14H37.4505ZM35.8305 5.882V4.46H41.9145V5.882H35.8305ZM43.5443 14V4.46H45.2003V7.052L45.0383 6.404C45.3023 5.744 45.7463 5.24 46.3703 4.892C46.9943 4.544 47.7623 4.37 48.6743 4.37V6.044C48.6023 6.032 48.5303 6.026 48.4583 6.026C48.3983 6.026 48.3383 6.026 48.2783 6.026C47.3543 6.026 46.6223 6.302 46.0823 6.854C45.5423 7.406 45.2723 8.204 45.2723 9.248V14H43.5443ZM54.8021 14.108C53.8421 14.108 52.9901 13.898 52.2461 13.478C51.5021 13.058 50.9141 12.482 50.4821 11.75C50.0501 11.006 49.8341 10.166 49.8341 9.23C49.8341 8.282 50.0501 7.442 50.4821 6.71C50.9141 5.978 51.5021 5.408 52.2461 5C52.9901 4.58 53.8421 4.37 54.8021 4.37C55.7501 4.37 56.5961 4.58 57.3401 5C58.0961 5.408 58.6841 5.978 59.1041 6.71C59.5361 7.43 59.7521 8.27 59.7521 9.23C59.7521 10.178 59.5361 11.018 59.1041 11.75C58.6841 12.482 58.0961 13.058 57.3401 13.478C56.5961 13.898 55.7501 14.108 54.8021 14.108ZM54.8021 12.596C55.4141 12.596 55.9601 12.458 56.4401 12.182C56.9321 11.906 57.3161 11.516 57.5921 11.012C57.8681 10.496 58.0061 9.902 58.0061 9.23C58.0061 8.546 57.8681 7.958 57.5921 7.466C57.3161 6.962 56.9321 6.572 56.4401 6.296C55.9601 6.02 55.4141 5.882 54.8021 5.882C54.1901 5.882 53.6441 6.02 53.1641 6.296C52.6841 6.572 52.3001 6.962 52.0121 7.466C51.7241 7.958 51.5801 8.546 51.5801 9.23C51.5801 9.902 51.7241 10.496 52.0121 11.012C52.3001 11.516 52.6841 11.906 53.1641 12.182C53.6441 12.458 54.1901 12.596 54.8021 12.596ZM74.0759 4.37C74.8439 4.37 75.5219 4.52 76.1099 4.82C76.6979 5.12 77.1539 5.576 77.4779 6.188C77.8139 6.8 77.9819 7.574 77.9819 8.51V14H76.2539V8.708C76.2539 7.784 76.0379 7.088 75.6059 6.62C75.1739 6.152 74.5679 5.918 73.7879 5.918C73.2119 5.918 72.7079 6.038 72.2759 6.278C71.8439 6.518 71.5079 6.872 71.2679 7.34C71.0399 7.808 70.9259 8.39 70.9259 9.086V14H69.1979V8.708C69.1979 7.784 68.9819 7.088 68.5499 6.62C68.1299 6.152 67.5239 5.918 66.7319 5.918C66.1679 5.918 65.6699 6.038 65.2379 6.278C64.8059 6.518 64.4699 6.872 64.2299 7.34C63.9899 7.808 63.8699 8.39 63.8699 9.086V14H62.1419V4.46H63.7979V6.998L63.5279 6.35C63.8279 5.726 64.2899 5.24 64.9139 4.892C65.5379 4.544 66.2639 4.37 67.0919 4.37C68.0039 4.37 68.7899 4.598 69.4499 5.054C70.1099 5.498 70.5419 6.176 70.7459 7.088L70.0439 6.8C70.3319 6.068 70.8359 5.48 71.5559 5.036C72.2759 4.592 73.1159 4.37 74.0759 4.37ZM85.1034 14.108C84.1794 14.108 83.3514 13.904 82.6194 13.496C81.8994 13.088 81.3294 12.518 80.9094 11.786C80.4894 11.054 80.2794 10.202 80.2794 9.23C80.2794 8.258 80.4894 7.412 80.9094 6.692C81.3294 5.96 81.8994 5.39 82.6194 4.982C83.3514 4.574 84.1794 4.37 85.1034 4.37C85.9074 4.37 86.6334 4.55 87.2814 4.91C87.9294 5.27 88.4454 5.81 88.8294 6.53C89.2254 7.25 89.4234 8.15 89.4234 9.23C89.4234 10.31 89.2314 11.21 88.8474 11.93C88.4754 12.65 87.9654 13.196 87.3174 13.568C86.6694 13.928 85.9314 14.108 85.1034 14.108ZM85.2474 12.596C85.8474 12.596 86.3874 12.458 86.8674 12.182C87.3594 11.906 87.7434 11.516 88.0194 11.012C88.3074 10.496 88.4514 9.902 88.4514 9.23C88.4514 8.546 88.3074 7.958 88.0194 7.466C87.7434 6.962 87.3594 6.572 86.8674 6.296C86.3874 6.02 85.8474 5.882 85.2474 5.882C84.6354 5.882 84.0894 6.02 83.6094 6.296C83.1294 6.572 82.7454 6.962 82.4574 7.466C82.1694 7.958 82.0254 8.546 82.0254 9.23C82.0254 9.902 82.1694 10.496 82.4574 11.012C82.7454 11.516 83.1294 11.906 83.6094 12.182C84.0894 12.458 84.6354 12.596 85.2474 12.596ZM88.5054 14V11.426L88.6134 9.212L88.4334 6.998V0.643999H90.1614V14H88.5054ZM93.431 14V4.46H95.159V14H93.431ZM94.295 2.624C93.959 2.624 93.677 2.516 93.449 2.3C93.233 2.084 93.125 1.82 93.125 1.508C93.125 1.184 93.233 0.914 93.449 0.698C93.677 0.482 93.959 0.373999 94.295 0.373999C94.631 0.373999 94.907 0.482 95.123 0.698C95.351 0.901999 95.465 1.16 95.465 1.472C95.465 1.796 95.357 2.072 95.141 2.3C94.925 2.516 94.643 2.624 94.295 2.624ZM104.38 14V11.984L104.29 11.606V8.168C104.29 7.436 104.074 6.872 103.642 6.476C103.222 6.068 102.586 5.864 101.734 5.864C101.17 5.864 100.618 5.96 100.078 6.152C99.5383 6.332 99.0823 6.578 98.7103 6.89L97.9903 5.594C98.4823 5.198 99.0703 4.898 99.7543 4.694C100.45 4.478 101.176 4.37 101.932 4.37C103.24 4.37 104.248 4.688 104.956 5.324C105.664 5.96 106.018 6.932 106.018 8.24V14H104.38ZM101.248 14.108C100.54 14.108 99.9163 13.988 99.3763 13.748C98.8483 13.508 98.4403 13.178 98.1523 12.758C97.8643 12.326 97.7203 11.84 97.7203 11.3C97.7203 10.784 97.8403 10.316 98.0803 9.896C98.3323 9.476 98.7343 9.14 99.2863 8.888C99.8503 8.636 100.606 8.51 101.554 8.51H104.578V9.752H101.626C100.762 9.752 100.18 9.896 99.8803 10.184C99.5803 10.472 99.4303 10.82 99.4303 11.228C99.4303 11.696 99.6163 12.074 99.9883 12.362C100.36 12.638 100.876 12.776 101.536 12.776C102.184 12.776 102.748 12.632 103.228 12.344C103.72 12.056 104.074 11.636 104.29 11.084L104.632 12.272C104.404 12.836 104.002 13.286 103.426 13.622C102.85 13.946 102.124 14.108 101.248 14.108ZM114.274 14.108C113.458 14.108 112.72 13.928 112.06 13.568C111.412 13.196 110.896 12.65 110.512 11.93C110.14 11.21 109.954 10.31 109.954 9.23C109.954 8.15 110.146 7.25 110.53 6.53C110.926 5.81 111.448 5.27 112.096 4.91C112.756 4.55 113.482 4.37 114.274 4.37C115.21 4.37 116.038 4.574 116.758 4.982C117.478 5.39 118.048 5.96 118.468 6.692C118.888 7.412 119.098 8.258 119.098 9.23C119.098 10.202 118.888 11.054 118.468 11.786C118.048 12.518 117.478 13.088 116.758 13.496C116.038 13.904 115.21 14.108 114.274 14.108ZM109.216 14V0.643999H110.944V6.998L110.764 9.212L110.872 11.426V14H109.216ZM114.13 12.596C114.742 12.596 115.288 12.458 115.768 12.182C116.26 11.906 116.644 11.516 116.92 11.012C117.208 10.496 117.352 9.902 117.352 9.23C117.352 8.546 117.208 7.958 116.92 7.466C116.644 6.962 116.26 6.572 115.768 6.296C115.288 6.02 114.742 5.882 114.13 5.882C113.53 5.882 112.984 6.02 112.492 6.296C112.012 6.572 111.628 6.962 111.34 7.466C111.064 7.958 110.926 8.546 110.926 9.23C110.926 9.902 111.064 10.496 111.34 11.012C111.628 11.516 112.012 11.906 112.492 12.182C112.984 12.458 113.53 12.596 114.13 12.596ZM125.734 14.108C124.714 14.108 123.814 13.898 123.034 13.478C122.266 13.058 121.666 12.482 121.234 11.75C120.814 11.018 120.604 10.178 120.604 9.23C120.604 8.282 120.808 7.442 121.216 6.71C121.636 5.978 122.206 5.408 122.926 5C123.658 4.58 124.48 4.37 125.392 4.37C126.316 4.37 127.132 4.574 127.84 4.982C128.548 5.39 129.1 5.966 129.496 6.71C129.904 7.442 130.108 8.3 130.108 9.284C130.108 9.356 130.102 9.44 130.09 9.536C130.09 9.632 130.084 9.722 130.072 9.806H121.954V8.564H129.172L128.47 8.996C128.482 8.384 128.356 7.838 128.092 7.358C127.828 6.878 127.462 6.506 126.994 6.242C126.538 5.966 126.004 5.828 125.392 5.828C124.792 5.828 124.258 5.966 123.79 6.242C123.322 6.506 122.956 6.884 122.692 7.376C122.428 7.856 122.296 8.408 122.296 9.032V9.32C122.296 9.956 122.44 10.526 122.728 11.03C123.028 11.522 123.442 11.906 123.97 12.182C124.498 12.458 125.104 12.596 125.788 12.596C126.352 12.596 126.862 12.5 127.318 12.308C127.786 12.116 128.194 11.828 128.542 11.444L129.496 12.56C129.064 13.064 128.524 13.448 127.876 13.712C127.24 13.976 126.526 14.108 125.734 14.108ZM135.783 14.108C134.823 14.108 134.079 13.85 133.551 13.334C133.023 12.818 132.759 12.08 132.759 11.12V2.372H134.487V11.048C134.487 11.564 134.613 11.96 134.865 12.236C135.129 12.512 135.501 12.65 135.981 12.65C136.521 12.65 136.971 12.5 137.331 12.2L137.871 13.442C137.607 13.67 137.289 13.838 136.917 13.946C136.557 14.054 136.179 14.108 135.783 14.108ZM131.139 5.882V4.46H137.223V5.882H131.139ZM143.892 14.108C142.872 14.108 141.972 13.898 141.192 13.478C140.424 13.058 139.824 12.482 139.392 11.75C138.972 11.018 138.762 10.178 138.762 9.23C138.762 8.282 138.966 7.442 139.374 6.71C139.794 5.978 140.364 5.408 141.084 5C141.816 4.58 142.638 4.37 143.55 4.37C144.474 4.37 145.29 4.574 145.998 4.982C146.706 5.39 147.258 5.966 147.654 6.71C148.062 7.442 148.266 8.3 148.266 9.284C148.266 9.356 148.26 9.44 148.248 9.536C148.248 9.632 148.242 9.722 148.23 9.806H140.112V8.564H147.33L146.628 8.996C146.64 8.384 146.514 7.838 146.25 7.358C145.986 6.878 145.62 6.506 145.152 6.242C144.696 5.966 144.162 5.828 143.55 5.828C142.95 5.828 142.416 5.966 141.948 6.242C141.48 6.506 141.114 6.884 140.85 7.376C140.586 7.856 140.454 8.408 140.454 9.032V9.32C140.454 9.956 140.598 10.526 140.886 11.03C141.186 11.522 141.6 11.906 142.128 12.182C142.656 12.458 143.262 12.596 143.946 12.596C144.51 12.596 145.02 12.5 145.476 12.308C145.944 12.116 146.352 11.828 146.7 11.444L147.654 12.56C147.222 13.064 146.682 13.448 146.034 13.712C145.398 13.976 144.684 14.108 143.892 14.108ZM153.401 14.108C152.609 14.108 151.853 14 151.133 13.784C150.425 13.568 149.867 13.304 149.459 12.992L150.179 11.624C150.587 11.9 151.091 12.134 151.691 12.326C152.291 12.518 152.903 12.614 153.527 12.614C154.331 12.614 154.907 12.5 155.255 12.272C155.615 12.044 155.795 11.726 155.795 11.318C155.795 11.018 155.687 10.784 155.471 10.616C155.255 10.448 154.967 10.322 154.607 10.238C154.259 10.154 153.869 10.082 153.437 10.022C153.005 9.95 152.573 9.866 152.141 9.77C151.709 9.662 151.313 9.518 150.953 9.338C150.593 9.146 150.305 8.888 150.089 8.564C149.873 8.228 149.765 7.784 149.765 7.232C149.765 6.656 149.927 6.152 150.251 5.72C150.575 5.288 151.031 4.958 151.619 4.73C152.219 4.49 152.927 4.37 153.743 4.37C154.367 4.37 154.997 4.448 155.633 4.604C156.281 4.748 156.809 4.958 157.217 5.234L156.479 6.602C156.047 6.314 155.597 6.116 155.129 6.008C154.661 5.9 154.193 5.846 153.725 5.846C152.969 5.846 152.405 5.972 152.033 6.224C151.661 6.464 151.475 6.776 151.475 7.16C151.475 7.484 151.583 7.736 151.799 7.916C152.027 8.084 152.315 8.216 152.663 8.312C153.023 8.408 153.419 8.492 153.851 8.564C154.283 8.624 154.715 8.708 155.147 8.816C155.579 8.912 155.969 9.05 156.317 9.23C156.677 9.41 156.965 9.662 157.181 9.986C157.409 10.31 157.523 10.742 157.523 11.282C157.523 11.858 157.355 12.356 157.019 12.776C156.683 13.196 156.209 13.526 155.597 13.766C154.985 13.994 154.253 14.108 153.401 14.108Z" fill="#E81622"/>
</svg>
