<svg width="89" height="125" viewBox="0 0 89 125" fill="none" xmlns="http://www.w3.org/2000/svg">
<path d="M5 73.8611L6.18094 73.3456C7.36189 72.83 9.72377 71.7988 12.0857 68.7283C14.4475 65.6577 16.8094 60.5477 19.1713 61.7463C21.5332 62.9448 23.8951 70.4519 26.257 73.4017C28.6189 76.3515 30.9808 74.7441 33.3426 72.8698C35.7045 70.9955 38.0664 68.8543 40.4283 61.31C42.7902 53.7658 45.1521 40.8184 47.514 36.9876C49.8759 33.1569 52.2377 38.4427 54.5996 41.5173C56.9615 44.5918 59.3234 45.455 61.6853 43.9524C64.0472 42.4497 66.4091 38.5812 68.771 36.8487C71.1328 35.1163 73.4947 35.5199 75.8566 36.1309C78.2185 36.742 80.5804 37.5603 81.7613 37.9695L82.9423 38.3786" stroke="#FF0000"/>
<path d="M6.18094 73.3456L5 73.8611L5 121L82.9423 76L82.9423 38.3786L81.7613 37.9695C80.5804 37.5603 78.2185 36.7419 75.8566 36.1309C73.4947 35.5199 71.1329 35.1163 68.771 36.8487C66.4091 38.5812 64.0472 42.4497 61.6853 43.9524C59.3234 45.455 56.9615 44.5918 54.5996 41.5173C52.2378 38.4427 49.8759 33.1569 47.514 36.9876C45.1521 40.8184 42.7902 53.7658 40.4283 61.31C38.0664 68.8543 35.7045 70.9955 33.3426 72.8698C30.9808 74.7441 28.6189 76.3515 26.257 73.4017C23.8951 70.4519 21.5332 62.9448 19.1713 61.7463C16.8094 60.5477 14.4475 65.6577 12.0857 68.7283C9.72378 71.7988 7.36189 72.83 6.18094 73.3456Z" fill="url(#paint0_linear_560_22785)"/>
<line y1="-0.2" x2="31.3846" y2="-0.2" transform="matrix(1.0405e-07 1 -0.866025 0.5 32.767 73.5841)" stroke="#C4C4C4" stroke-width="0.4"/>
<line y1="-0.2" x2="45.2308" y2="-0.2" transform="matrix(1.0405e-07 1 -0.866025 0.5 58.5853 44.8318)" stroke="#C4C4C4" stroke-width="0.4"/>
<rect width="19.7419" height="47.1429" transform="matrix(0.866025 -0.5 2.20305e-08 1 0 57.8572)" fill="url(#paint1_linear_560_22785)"/>
<rect width="19.5437" height="8.85093" transform="matrix(0.866025 -0.5 2.20305e-08 1 40.6208 72.6967)" fill="url(#paint2_linear_560_22785)"/>
<rect width="19.7419" height="60" transform="matrix(0.866025 -0.5 2.20305e-08 1 60.8452 9.87097)" fill="url(#paint3_linear_560_22785)"/>
<rect width="19.6154" height="58.7755" transform="matrix(0.866025 -0.5 2.20305e-08 1 71.9548 29.8077)" fill="url(#paint4_linear_560_22785)"/>
<rect width="19.6154" height="15.9184" transform="matrix(0.866025 -0.5 2.20305e-08 1 30.9852 97.5432)" fill="url(#paint5_linear_560_22785)"/>
<rect width="19.0385" height="35.5102" transform="matrix(0.866025 -0.5 2.20305e-08 1 11 88.2653)" fill="url(#paint6_linear_560_22785)"/>
<defs>
<linearGradient id="paint0_linear_560_22785" x1="43.9711" y1="38.5" x2="69.9519" y2="83.5" gradientUnits="userSpaceOnUse">
<stop stop-color="#FF0000" stop-opacity="0.2"/>
<stop offset="1" stop-color="#FF0000" stop-opacity="0"/>
</linearGradient>
<linearGradient id="paint1_linear_560_22785" x1="9.87097" y1="0" x2="9.87097" y2="47.1429" gradientUnits="userSpaceOnUse">
<stop stop-color="#60C075"/>
<stop offset="1" stop-color="#6092C0" stop-opacity="0"/>
</linearGradient>
<linearGradient id="paint2_linear_560_22785" x1="9.77183" y1="0" x2="9.77183" y2="8.85093" gradientUnits="userSpaceOnUse">
<stop stop-color="#60C075"/>
<stop offset="1" stop-color="#6092C0" stop-opacity="0"/>
</linearGradient>
<linearGradient id="paint3_linear_560_22785" x1="9.87097" y1="0" x2="9.87097" y2="60" gradientUnits="userSpaceOnUse">
<stop stop-color="#60C075"/>
<stop offset="1" stop-color="#6092C0" stop-opacity="0"/>
</linearGradient>
<linearGradient id="paint4_linear_560_22785" x1="9.80769" y1="0" x2="9.80769" y2="58.7755" gradientUnits="userSpaceOnUse">
<stop stop-color="#009DFF"/>
<stop offset="1" stop-color="#009DFF" stop-opacity="0"/>
</linearGradient>
<linearGradient id="paint5_linear_560_22785" x1="9.80769" y1="0" x2="9.80769" y2="15.9184" gradientUnits="userSpaceOnUse">
<stop stop-color="#009DFF"/>
<stop offset="1" stop-color="#009DFF" stop-opacity="0"/>
</linearGradient>
<linearGradient id="paint6_linear_560_22785" x1="9.51923" y1="0" x2="9.51923" y2="35.5102" gradientUnits="userSpaceOnUse">
<stop stop-color="#009DFF"/>
<stop offset="1" stop-color="#009DFF" stop-opacity="0"/>
</linearGradient>
</defs>
</svg>
