<svg width="176" height="108" viewBox="0 0 176 108" fill="none" xmlns="http://www.w3.org/2000/svg">
<path d="M58.17 43.1016C58.17 26.44 71.5232 12.9301 87.9999 12.9301C104.473 12.9301 117.83 26.44 117.83 43.1016C117.83 59.7669 104.473 73.2731 87.9999 73.2731C71.5232 73.2731 58.17 59.7669 58.17 43.1016ZM87.9999 0C83.9248 0 79.9784 0.576079 76.245 1.66134C74.6062 2.13334 72.993 2.71313 71.4093 3.38956C70.1894 3.9136 69.0025 4.48596 67.8487 5.11406C60.4188 9.15403 54.3154 15.3571 50.3542 22.8869C50.3469 22.8944 50.3432 22.9055 50.3395 22.9129C50.3395 22.9129 50.3395 22.9129 50.3395 22.9167C49.7589 24.0242 49.2261 25.1578 48.7374 26.3211C48.0319 28.0084 47.4366 29.7292 46.9516 31.476C45.9301 35.174 45.3862 39.0728 45.3862 43.1016C45.3862 47.0858 45.919 50.9436 46.9185 54.6082C47.4109 56.3959 48.0172 58.1576 48.7374 59.8821C49.3694 61.3873 50.0786 62.848 50.8613 64.2603C52.4377 67.0812 54.3154 69.7014 56.4539 72.0837C56.9133 72.5929 57.3836 73.091 57.865 73.5816C58.5337 74.2542 59.2209 74.9047 59.9264 75.5328C61.8041 77.1978 63.8288 78.6993 65.9784 80.015C67.7127 81.0742 69.5243 82.0071 71.4093 82.8136C76.6713 85.0622 82.2529 86.2069 87.9999 86.2069C93.7469 86.2069 99.3285 85.0622 104.59 82.8136C106.56 81.97 108.452 80.985 110.26 79.8701C112.024 78.7699 113.707 77.5509 115.291 76.2092C116.272 75.3804 117.22 74.5033 118.131 73.5816C118.844 72.8568 119.531 72.1135 120.189 71.3516C122.111 69.1142 123.808 66.6724 125.245 64.067C125.987 62.7142 126.66 61.3204 127.262 59.8858C127.957 58.2245 128.545 56.5297 129.022 54.8089C129.026 54.8052 129.026 54.8052 129.026 54.8015C129.033 54.7829 129.037 54.7643 129.041 54.7458C130.066 51.0403 130.614 47.1341 130.614 43.1016C130.614 39.0728 130.07 35.174 129.044 31.4723C128.559 29.7255 127.964 28.0084 127.262 26.3211C126.711 25.0017 126.098 23.7194 125.425 22.4707C125.421 22.4595 125.418 22.4558 125.41 22.4446V22.4409C121.479 15.1749 115.533 9.17632 108.338 5.21441C107.126 4.54914 105.877 3.93962 104.59 3.38956C102.948 2.68712 101.276 2.09246 99.5747 1.60558C99.571 1.60558 99.5673 1.60558 99.5636 1.60558C99.5453 1.59814 99.5269 1.59444 99.5085 1.58699C95.8487 0.553776 91.9867 0 87.9999 0ZM84.7075 13.1122C85.7878 12.9896 86.8865 12.9301 87.9999 12.9301C89.0581 12.9301 90.1054 12.9859 91.1379 13.0936C91.1453 13.0936 91.1526 13.0974 91.1637 13.0974C91.2041 13.1011 91.2408 13.1048 91.2849 13.1085C91.3253 13.1159 91.3694 13.1197 91.4098 13.1234C91.4172 13.1234 91.4245 13.1271 91.4319 13.1271C97.6896 13.8481 103.51 16.5315 108.18 20.8837C108.202 20.9022 108.221 20.9208 108.239 20.9394C108.258 20.9543 108.276 20.9729 108.294 20.9877C108.879 21.5378 109.441 22.1101 109.981 22.7048C110.007 22.7345 110.032 22.7643 110.062 22.794C110.069 22.8014 110.076 22.8089 110.084 22.82C114.317 27.5215 116.926 33.3566 117.635 39.6228C117.635 39.6377 117.639 39.6526 117.639 39.6637C117.642 39.7009 117.646 39.7381 117.65 39.7752C117.657 39.8198 117.661 39.8681 117.664 39.9164C117.664 39.9164 117.668 39.9202 117.668 39.9239C117.775 40.9683 117.83 42.0275 117.83 43.1016C117.83 44.172 117.775 45.2312 117.668 46.2756C117.668 46.283 117.664 46.2942 117.664 46.3016C117.661 46.3425 117.657 46.3834 117.653 46.4205C117.646 46.4651 117.642 46.5097 117.639 46.5543C117.639 46.5618 117.639 46.5655 117.635 46.5729C116.878 53.3223 113.909 59.5662 109.095 64.4387C103.459 70.1362 95.9699 73.2731 87.9999 73.2731C80.0335 73.2731 72.5411 70.1362 66.9043 64.4387C62.0907 59.5699 59.1253 53.326 58.3647 46.5803C58.3647 46.5692 58.361 46.5543 58.361 46.5432C58.3574 46.506 58.3537 46.4651 58.35 46.428C58.3427 46.3834 58.339 46.3388 58.3353 46.2942C58.3353 46.2904 58.3353 46.283 58.3316 46.2793C58.2251 45.2349 58.17 44.1757 58.17 43.1016C58.17 41.9755 58.2287 40.8605 58.35 39.7678C58.3537 39.7381 58.3574 39.7083 58.3574 39.6786C58.361 39.66 58.3647 39.6377 58.3647 39.6117C59.0665 33.4161 61.6314 27.6405 65.7836 22.9687C65.813 22.9352 65.8424 22.9018 65.8718 22.8683C65.8755 22.8646 65.8791 22.8609 65.8828 22.8535C66.5406 22.1176 67.235 21.4151 67.9626 20.7499C72.6072 16.4795 78.3689 13.8444 84.5568 13.1271C84.5752 13.1271 84.5936 13.1234 84.6119 13.1234C84.645 13.1197 84.6744 13.1159 84.7075 13.1122ZM87.9999 0C64.4644 0 45.3862 19.2967 45.3862 43.1016C45.3862 66.9102 64.4644 86.2069 87.9999 86.2069C111.535 86.2069 130.614 66.9102 130.614 43.1016C130.614 19.2967 111.535 0 87.9999 0Z" fill="#0D55EA"/>
<path d="M2.1 107V95.46C2.1 94.42 2.4 93.5933 3 92.98C3.61333 92.3533 4.48 92.04 5.6 92.04C6.01333 92.04 6.40667 92.0933 6.78 92.2C7.16667 92.2933 7.49333 92.4467 7.76 92.66L7.18 94.12C6.98 93.96 6.75333 93.84 6.5 93.76C6.24667 93.6667 5.98 93.62 5.7 93.62C5.14 93.62 4.71333 93.78 4.42 94.1C4.12667 94.4067 3.98 94.8667 3.98 95.48V96.9L4.02 97.78V107H2.1ZM0.3 97.98V96.4H7.06V97.98H0.3ZM8.87078 107V96.4H10.7108V99.28L10.5308 98.56C10.8241 97.8267 11.3174 97.2667 12.0108 96.88C12.7041 96.4933 13.5574 96.3 14.5708 96.3V98.16C14.4908 98.1467 14.4108 98.14 14.3308 98.14C14.2641 98.14 14.1974 98.14 14.1308 98.14C13.1041 98.14 12.2908 98.4467 11.6908 99.06C11.0908 99.6733 10.7908 100.56 10.7908 101.72V107H8.87078ZM21.5595 107.12C20.4262 107.12 19.4262 106.887 18.5595 106.42C17.7062 105.953 17.0395 105.313 16.5595 104.5C16.0929 103.687 15.8595 102.753 15.8595 101.7C15.8595 100.647 16.0862 99.7133 16.5395 98.9C17.0062 98.0867 17.6395 97.4533 18.4395 97C19.2529 96.5333 20.1662 96.3 21.1795 96.3C22.2062 96.3 23.1129 96.5267 23.8995 96.98C24.6862 97.4333 25.2995 98.0733 25.7395 98.9C26.1929 99.7133 26.4195 100.667 26.4195 101.76C26.4195 101.84 26.4129 101.933 26.3995 102.04C26.3995 102.147 26.3929 102.247 26.3795 102.34H17.3595V100.96H25.3795L24.5995 101.44C24.6129 100.76 24.4729 100.153 24.1795 99.62C23.8862 99.0867 23.4795 98.6733 22.9595 98.38C22.4529 98.0733 21.8595 97.92 21.1795 97.92C20.5129 97.92 19.9195 98.0733 19.3995 98.38C18.8795 98.6733 18.4729 99.0933 18.1795 99.64C17.8862 100.173 17.7395 100.787 17.7395 101.48V101.8C17.7395 102.507 17.8995 103.14 18.2195 103.7C18.5529 104.247 19.0129 104.673 19.5995 104.98C20.1862 105.287 20.8595 105.44 21.6195 105.44C22.2462 105.44 22.8129 105.333 23.3195 105.12C23.8395 104.907 24.2929 104.587 24.6795 104.16L25.7395 105.4C25.2595 105.96 24.6595 106.387 23.9395 106.68C23.2329 106.973 22.4395 107.12 21.5595 107.12ZM33.8056 107.12C32.6723 107.12 31.6723 106.887 30.8056 106.42C29.9523 105.953 29.2856 105.313 28.8056 104.5C28.339 103.687 28.1056 102.753 28.1056 101.7C28.1056 100.647 28.3323 99.7133 28.7856 98.9C29.2523 98.0867 29.8856 97.4533 30.6856 97C31.499 96.5333 32.4123 96.3 33.4256 96.3C34.4523 96.3 35.359 96.5267 36.1456 96.98C36.9323 97.4333 37.5456 98.0733 37.9856 98.9C38.439 99.7133 38.6656 100.667 38.6656 101.76C38.6656 101.84 38.659 101.933 38.6456 102.04C38.6456 102.147 38.639 102.247 38.6256 102.34H29.6056V100.96H37.6256L36.8456 101.44C36.859 100.76 36.719 100.153 36.4256 99.62C36.1323 99.0867 35.7256 98.6733 35.2056 98.38C34.699 98.0733 34.1056 97.92 33.4256 97.92C32.759 97.92 32.1656 98.0733 31.6456 98.38C31.1256 98.6733 30.719 99.0933 30.4256 99.64C30.1323 100.173 29.9856 100.787 29.9856 101.48V101.8C29.9856 102.507 30.1456 103.14 30.4656 103.7C30.799 104.247 31.259 104.673 31.8456 104.98C32.4323 105.287 33.1056 105.44 33.8656 105.44C34.4923 105.44 35.059 105.333 35.5656 105.12C36.0856 104.907 36.539 104.587 36.9256 104.16L37.9856 105.4C37.5056 105.96 36.9056 106.387 36.1856 106.68C35.479 106.973 34.6856 107.12 33.8056 107.12ZM41.6117 107V95.46C41.6117 94.42 41.9117 93.5933 42.5117 92.98C43.1251 92.3533 43.9917 92.04 45.1117 92.04C45.5251 92.04 45.9184 92.0933 46.2917 92.2C46.6784 92.2933 47.0051 92.4467 47.2717 92.66L46.6917 94.12C46.4917 93.96 46.2651 93.84 46.0117 93.76C45.7584 93.6667 45.4917 93.62 45.2117 93.62C44.6517 93.62 44.2251 93.78 43.9317 94.1C43.6384 94.4067 43.4917 94.8667 43.4917 95.48V96.9L43.5317 97.78V107H41.6117ZM39.8117 97.98V96.4H46.5717V97.98H39.8117ZM48.3825 107V96.4H50.2225V99.28L50.0425 98.56C50.3358 97.8267 50.8292 97.2667 51.5225 96.88C52.2158 96.4933 53.0692 96.3 54.0825 96.3V98.16C54.0025 98.1467 53.9225 98.14 53.8425 98.14C53.7758 98.14 53.7092 98.14 53.6425 98.14C52.6158 98.14 51.8025 98.4467 51.2025 99.06C50.6025 99.6733 50.3025 100.56 50.3025 101.72V107H48.3825ZM60.8913 107.12C59.8246 107.12 58.8779 106.887 58.0513 106.42C57.2246 105.953 56.5713 105.313 56.0913 104.5C55.6113 103.673 55.3713 102.74 55.3713 101.7C55.3713 100.647 55.6113 99.7133 56.0913 98.9C56.5713 98.0867 57.2246 97.4533 58.0513 97C58.8779 96.5333 59.8246 96.3 60.8913 96.3C61.9446 96.3 62.8846 96.5333 63.7113 97C64.5513 97.4533 65.2046 98.0867 65.6713 98.9C66.1513 99.7 66.3913 100.633 66.3913 101.7C66.3913 102.753 66.1513 103.687 65.6713 104.5C65.2046 105.313 64.5513 105.953 63.7113 106.42C62.8846 106.887 61.9446 107.12 60.8913 107.12ZM60.8913 105.44C61.5713 105.44 62.1779 105.287 62.7113 104.98C63.2579 104.673 63.6846 104.24 63.9913 103.68C64.2979 103.107 64.4513 102.447 64.4513 101.7C64.4513 100.94 64.2979 100.287 63.9913 99.74C63.6846 99.18 63.2579 98.7467 62.7113 98.44C62.1779 98.1333 61.5713 97.98 60.8913 97.98C60.2113 97.98 59.6046 98.1333 59.0713 98.44C58.5379 98.7467 58.1113 99.18 57.7913 99.74C57.4713 100.287 57.3113 100.94 57.3113 101.7C57.3113 102.447 57.4713 103.107 57.7913 103.68C58.1113 104.24 58.5379 104.673 59.0713 104.98C59.6046 105.287 60.2113 105.44 60.8913 105.44ZM82.3066 96.3C83.1599 96.3 83.9132 96.4667 84.5666 96.8C85.2199 97.1333 85.7266 97.64 86.0866 98.32C86.4599 99 86.6466 99.86 86.6466 100.9V107H84.7266V101.12C84.7266 100.093 84.4866 99.32 84.0066 98.8C83.5266 98.28 82.8532 98.02 81.9866 98.02C81.3466 98.02 80.7866 98.1533 80.3066 98.42C79.8266 98.6867 79.4532 99.08 79.1866 99.6C78.9332 100.12 78.8066 100.767 78.8066 101.54V107H76.8866V101.12C76.8866 100.093 76.6466 99.32 76.1666 98.8C75.6999 98.28 75.0266 98.02 74.1466 98.02C73.5199 98.02 72.9666 98.1533 72.4866 98.42C72.0066 98.6867 71.6332 99.08 71.3666 99.6C71.0999 100.12 70.9666 100.767 70.9666 101.54V107H69.0466V96.4H70.8866V99.22L70.5866 98.5C70.9199 97.8067 71.4332 97.2667 72.1266 96.88C72.8199 96.4933 73.6266 96.3 74.5466 96.3C75.5599 96.3 76.4332 96.5533 77.1666 97.06C77.8999 97.5533 78.3799 98.3067 78.6066 99.32L77.8266 99C78.1466 98.1867 78.7066 97.5333 79.5066 97.04C80.3066 96.5467 81.2399 96.3 82.3066 96.3ZM94.5594 107.12C93.5327 107.12 92.6127 106.893 91.7994 106.44C90.9994 105.987 90.366 105.353 89.8994 104.54C89.4327 103.727 89.1994 102.78 89.1994 101.7C89.1994 100.62 89.4327 99.68 89.8994 98.88C90.366 98.0667 90.9994 97.4333 91.7994 96.98C92.6127 96.5267 93.5327 96.3 94.5594 96.3C95.4527 96.3 96.2594 96.5 96.9794 96.9C97.6994 97.3 98.2727 97.9 98.6994 98.7C99.1394 99.5 99.3594 100.5 99.3594 101.7C99.3594 102.9 99.146 103.9 98.7194 104.7C98.306 105.5 97.7394 106.107 97.0194 106.52C96.2994 106.92 95.4794 107.12 94.5594 107.12ZM94.7194 105.44C95.386 105.44 95.986 105.287 96.5194 104.98C97.066 104.673 97.4927 104.24 97.7994 103.68C98.1194 103.107 98.2794 102.447 98.2794 101.7C98.2794 100.94 98.1194 100.287 97.7994 99.74C97.4927 99.18 97.066 98.7467 96.5194 98.44C95.986 98.1333 95.386 97.98 94.7194 97.98C94.0394 97.98 93.4327 98.1333 92.8994 98.44C92.366 98.7467 91.9394 99.18 91.6194 99.74C91.2994 100.287 91.1394 100.94 91.1394 101.7C91.1394 102.447 91.2994 103.107 91.6194 103.68C91.9394 104.24 92.366 104.673 92.8994 104.98C93.4327 105.287 94.0394 105.44 94.7194 105.44ZM98.3394 107V104.14L98.4594 101.68L98.2594 99.22V92.16H100.179V107H98.3394ZM103.812 107V96.4H105.732V107H103.812ZM104.772 94.36C104.399 94.36 104.086 94.24 103.832 94C103.592 93.76 103.472 93.4667 103.472 93.12C103.472 92.76 103.592 92.46 103.832 92.22C104.086 91.98 104.399 91.86 104.772 91.86C105.146 91.86 105.452 91.98 105.692 92.22C105.946 92.4467 106.072 92.7333 106.072 93.08C106.072 93.44 105.952 93.7467 105.712 94C105.472 94.24 105.159 94.36 104.772 94.36ZM115.978 107V104.76L115.878 104.34V100.52C115.878 99.7067 115.638 99.08 115.158 98.64C114.691 98.1867 113.985 97.96 113.038 97.96C112.411 97.96 111.798 98.0667 111.198 98.28C110.598 98.48 110.091 98.7533 109.678 99.1L108.878 97.66C109.425 97.22 110.078 96.8867 110.838 96.66C111.611 96.42 112.418 96.3 113.258 96.3C114.711 96.3 115.831 96.6533 116.618 97.36C117.405 98.0667 117.798 99.1467 117.798 100.6V107H115.978ZM112.498 107.12C111.711 107.12 111.018 106.987 110.418 106.72C109.831 106.453 109.378 106.087 109.058 105.62C108.738 105.14 108.578 104.6 108.578 104C108.578 103.427 108.711 102.907 108.978 102.44C109.258 101.973 109.705 101.6 110.318 101.32C110.945 101.04 111.785 100.9 112.838 100.9H116.198V102.28H112.918C111.958 102.28 111.311 102.44 110.978 102.76C110.645 103.08 110.478 103.467 110.478 103.92C110.478 104.44 110.685 104.86 111.098 105.18C111.511 105.487 112.085 105.64 112.818 105.64C113.538 105.64 114.165 105.48 114.698 105.16C115.245 104.84 115.638 104.373 115.878 103.76L116.258 105.08C116.005 105.707 115.558 106.207 114.918 106.58C114.278 106.94 113.471 107.12 112.498 107.12ZM126.971 107.12C126.065 107.12 125.245 106.92 124.511 106.52C123.791 106.107 123.218 105.5 122.791 104.7C122.378 103.9 122.171 102.9 122.171 101.7C122.171 100.5 122.385 99.5 122.811 98.7C123.251 97.9 123.831 97.3 124.551 96.9C125.285 96.5 126.091 96.3 126.971 96.3C128.011 96.3 128.931 96.5267 129.731 96.98C130.531 97.4333 131.165 98.0667 131.631 98.88C132.098 99.68 132.331 100.62 132.331 101.7C132.331 102.78 132.098 103.727 131.631 104.54C131.165 105.353 130.531 105.987 129.731 106.44C128.931 106.893 128.011 107.12 126.971 107.12ZM121.351 107V92.16H123.271V99.22L123.071 101.68L123.191 104.14V107H121.351ZM126.811 105.44C127.491 105.44 128.098 105.287 128.631 104.98C129.178 104.673 129.605 104.24 129.911 103.68C130.231 103.107 130.391 102.447 130.391 101.7C130.391 100.94 130.231 100.287 129.911 99.74C129.605 99.18 129.178 98.7467 128.631 98.44C128.098 98.1333 127.491 97.98 126.811 97.98C126.145 97.98 125.538 98.1333 124.991 98.44C124.458 98.7467 124.031 99.18 123.711 99.74C123.405 100.287 123.251 100.94 123.251 101.7C123.251 102.447 123.405 103.107 123.711 103.68C124.031 104.24 124.458 104.673 124.991 104.98C125.538 105.287 126.145 105.44 126.811 105.44ZM139.704 107.12C138.571 107.12 137.571 106.887 136.704 106.42C135.851 105.953 135.184 105.313 134.704 104.5C134.237 103.687 134.004 102.753 134.004 101.7C134.004 100.647 134.231 99.7133 134.684 98.9C135.151 98.0867 135.784 97.4533 136.584 97C137.397 96.5333 138.311 96.3 139.324 96.3C140.351 96.3 141.257 96.5267 142.044 96.98C142.831 97.4333 143.444 98.0733 143.884 98.9C144.337 99.7133 144.564 100.667 144.564 101.76C144.564 101.84 144.557 101.933 144.544 102.04C144.544 102.147 144.537 102.247 144.524 102.34H135.504V100.96H143.524L142.744 101.44C142.757 100.76 142.617 100.153 142.324 99.62C142.031 99.0867 141.624 98.6733 141.104 98.38C140.597 98.0733 140.004 97.92 139.324 97.92C138.657 97.92 138.064 98.0733 137.544 98.38C137.024 98.6733 136.617 99.0933 136.324 99.64C136.031 100.173 135.884 100.787 135.884 101.48V101.8C135.884 102.507 136.044 103.14 136.364 103.7C136.697 104.247 137.157 104.673 137.744 104.98C138.331 105.287 139.004 105.44 139.764 105.44C140.391 105.44 140.957 105.333 141.464 105.12C141.984 104.907 142.437 104.587 142.824 104.16L143.884 105.4C143.404 105.96 142.804 106.387 142.084 106.68C141.377 106.973 140.584 107.12 139.704 107.12ZM150.87 107.12C149.803 107.12 148.977 106.833 148.39 106.26C147.803 105.687 147.51 104.867 147.51 103.8V94.08H149.43V103.72C149.43 104.293 149.57 104.733 149.85 105.04C150.143 105.347 150.557 105.5 151.09 105.5C151.69 105.5 152.19 105.333 152.59 105L153.19 106.38C152.897 106.633 152.543 106.82 152.13 106.94C151.73 107.06 151.31 107.12 150.87 107.12ZM145.71 97.98V96.4H152.47V97.98H145.71ZM159.88 107.12C158.747 107.12 157.747 106.887 156.88 106.42C156.027 105.953 155.36 105.313 154.88 104.5C154.413 103.687 154.18 102.753 154.18 101.7C154.18 100.647 154.407 99.7133 154.86 98.9C155.327 98.0867 155.96 97.4533 156.76 97C157.573 96.5333 158.487 96.3 159.5 96.3C160.527 96.3 161.433 96.5267 162.22 96.98C163.007 97.4333 163.62 98.0733 164.06 98.9C164.513 99.7133 164.74 100.667 164.74 101.76C164.74 101.84 164.733 101.933 164.72 102.04C164.72 102.147 164.713 102.247 164.7 102.34H155.68V100.96H163.7L162.92 101.44C162.933 100.76 162.793 100.153 162.5 99.62C162.207 99.0867 161.8 98.6733 161.28 98.38C160.773 98.0733 160.18 97.92 159.5 97.92C158.833 97.92 158.24 98.0733 157.72 98.38C157.2 98.6733 156.793 99.0933 156.5 99.64C156.207 100.173 156.06 100.787 156.06 101.48V101.8C156.06 102.507 156.22 103.14 156.54 103.7C156.873 104.247 157.333 104.673 157.92 104.98C158.507 105.287 159.18 105.44 159.94 105.44C160.567 105.44 161.133 105.333 161.64 105.12C162.16 104.907 162.613 104.587 163 104.16L164.06 105.4C163.58 105.96 162.98 106.387 162.26 106.68C161.553 106.973 160.76 107.12 159.88 107.12ZM170.446 107.12C169.566 107.12 168.726 107 167.926 106.76C167.139 106.52 166.519 106.227 166.066 105.88L166.866 104.36C167.319 104.667 167.879 104.927 168.546 105.14C169.213 105.353 169.893 105.46 170.586 105.46C171.479 105.46 172.119 105.333 172.506 105.08C172.906 104.827 173.106 104.473 173.106 104.02C173.106 103.687 172.986 103.427 172.746 103.24C172.506 103.053 172.186 102.913 171.786 102.82C171.399 102.727 170.966 102.647 170.486 102.58C170.006 102.5 169.526 102.407 169.046 102.3C168.566 102.18 168.126 102.02 167.726 101.82C167.326 101.607 167.006 101.32 166.766 100.96C166.526 100.587 166.406 100.093 166.406 99.48C166.406 98.84 166.586 98.28 166.946 97.8C167.306 97.32 167.813 96.9533 168.466 96.7C169.133 96.4333 169.919 96.3 170.826 96.3C171.519 96.3 172.219 96.3867 172.926 96.56C173.646 96.72 174.233 96.9533 174.686 97.26L173.866 98.78C173.386 98.46 172.886 98.24 172.366 98.12C171.846 98 171.326 97.94 170.806 97.94C169.966 97.94 169.339 98.08 168.926 98.36C168.513 98.6267 168.306 98.9733 168.306 99.4C168.306 99.76 168.426 100.04 168.666 100.24C168.919 100.427 169.239 100.573 169.626 100.68C170.026 100.787 170.466 100.88 170.946 100.96C171.426 101.027 171.906 101.12 172.386 101.24C172.866 101.347 173.299 101.5 173.686 101.7C174.086 101.9 174.406 102.18 174.646 102.54C174.899 102.9 175.026 103.38 175.026 103.98C175.026 104.62 174.839 105.173 174.466 105.64C174.093 106.107 173.566 106.473 172.886 106.74C172.206 106.993 171.393 107.12 170.446 107.12Z" fill="#E81622"/>
<path d="M102 49C102 56.732 95.732 63 88 63C80.268 63 74 56.732 74 49C74 41.268 85.5 25.5 87.5 22C89.5 25.5 102 41.268 102 49Z" fill="#CF2820"/>
<path d="M99 47.0488C99 53.6493 93.6274 59 87 59C80.3726 59 75 53.6493 75 47.0488C75 40.4483 84.8571 26.9878 86.5714 24C88.2857 26.9878 99 40.4483 99 47.0488Z" fill="#F44236"/>
<path d="M85.5263 28C82.1797 32.2868 80.6886 34.9347 78.5263 40C77.062 44.7564 76.9237 46.6068 77.0263 49.5C77.0263 49.5 77.02 52.3633 79.0263 54.5C81.0326 56.6367 84.1047 55.7395 83.5263 52L81.5263 47.5C80.9128 45.8765 80.8194 44.5221 81.5263 40.5C82.4557 35.3921 83.4735 32.7051 85.5263 28Z" fill="#F98078" stroke="#F98078" stroke-width="0.3"/>
<path d="M89 46.5H94.5L98 50.5L95.5 56H90M87.5 53.5L86.5 55M86.5 55L83.5 50H78L81 55.5L86.5 55Z" stroke="#E0E0E0" stroke-width="0.3"/>
<path d="M78 50L81 45.5H86.5" stroke="#E0E0E0" stroke-width="0.3"/>
<path d="M85 45.5V43.5M85 43.5L90 45M85 43.5L89 40L94 41.5L90 45M90 45V46.5" stroke="#E0E0E0" stroke-width="0.3" stroke-linecap="round"/>
<path d="M94 41.5V46.5" stroke="#E0E0E0" stroke-width="0.3" stroke-linecap="round"/>
<rect x="88" y="52.0251" width="0.5" height="0.5" transform="rotate(-35.3535 88 52.0251)" fill="#D9D9D9"/>
<rect x="91.0254" y="51.1049" width="0.5" height="0.5" transform="rotate(-35.3535 91.0254 51.1049)" fill="#D9D9D9"/>
<rect x="88.2939" y="46" width="0.5" height="0.5" transform="rotate(59.6252 88.2939 46)" fill="#D9D9D9"/>
<rect x="92.397" y="45" width="0.5" height="0.5" transform="rotate(68.6457 92.397 45)" fill="#D9D9D9"/>
<rect x="92.5581" y="48.1582" width="0.5" height="0.5" transform="rotate(68.6457 92.5581 48.1582)" fill="#D9D9D9"/>
<rect x="88" y="42.5715" width="0.5" height="0.5" transform="rotate(-26.679 88 42.5715)" fill="#D9D9D9"/>
<rect x="91.1294" y="42.118" width="0.5" height="0.5" transform="rotate(-26.679 91.1294 42.118)" fill="#D9D9D9"/>
<rect x="95" y="49" width="0.5" height="0.5" fill="#D9D9D9"/>
<rect x="92.1011" y="54.7018" width="0.5" height="0.5" transform="rotate(-53.1917 92.1011 54.7018)" fill="#D9D9D9"/>
<rect x="94.6992" y="52.899" width="0.5" height="0.5" transform="rotate(-53.1917 94.6992 52.899)" fill="#D9D9D9"/>
<rect x="80.5728" y="51" width="0.5" height="0.5" transform="rotate(22.4533 80.5728 51)" fill="#D9D9D9"/>
<rect x="82.9634" y="53.07" width="0.5" height="0.5" transform="rotate(22.4533 82.9634 53.07)" fill="#D9D9D9"/>
<rect x="80" y="48.0649" width="0.5" height="0.5" transform="rotate(-36.1546 80 48.0649)" fill="#D9D9D9"/>
<rect x="83.0122" y="47.1024" width="0.5" height="0.5" transform="rotate(-36.1546 83.0122 47.1024)" fill="#D9D9D9"/>
<rect x="86" y="49.295" width="0.5" height="0.5" transform="rotate(-36.1546 86 49.295)" fill="#D9D9D9"/>
<path d="M83.5 50L86.5 45.5L88 48M98 50.5L92.4729 50.4691M92.4729 50.4691L89 46.5C89 46.5 88.5 47.6 86.5 52L90 56L92.5 50.5L92.4729 50.4691Z" stroke="#E0E0E0" stroke-width="0.3"/>
</svg>
