<svg width="86" height="87" viewBox="0 0 86 87" fill="none" xmlns="http://www.w3.org/2000/svg">
<path d="M13.17 43.1016C13.17 26.44 26.5232 12.9301 42.9999 12.9301C59.4728 12.9301 72.8298 26.44 72.8298 43.1016C72.8298 59.7669 59.4728 73.2731 42.9999 73.2731C26.5232 73.2731 13.17 59.7669 13.17 43.1016ZM42.9999 0C38.9248 0 34.9784 0.576079 31.245 1.66134C29.6062 2.13334 27.993 2.71313 26.4093 3.38956C25.1894 3.9136 24.0025 4.48596 22.8487 5.11406C15.4188 9.15403 9.31537 15.3571 5.35421 22.8869C5.34686 22.8944 5.34318 22.9055 5.33951 22.9129C5.33951 22.9129 5.33951 22.9129 5.33951 22.9167C4.75894 24.0242 4.22612 25.1578 3.73741 26.3211C3.03189 28.0084 2.43662 29.7292 1.95158 31.476C0.930064 35.174 0.38623 39.0728 0.38623 43.1016C0.38623 47.0858 0.919043 50.9436 1.91851 54.6082C2.4109 56.3959 3.0172 58.1576 3.73741 59.8821C4.36943 61.3873 5.07862 62.848 5.86129 64.2603C7.43767 67.0812 9.31537 69.7014 11.4539 72.0837C11.9133 72.5929 12.3836 73.091 12.865 73.5816C13.5337 74.2542 14.2209 74.9047 14.9264 75.5328C16.8041 77.1978 18.8288 78.6993 20.9784 80.015C22.7127 81.0742 24.5243 82.0071 26.4093 82.8136C31.6713 85.0622 37.2529 86.2069 42.9999 86.2069C48.7469 86.2069 54.3285 85.0622 59.5904 82.8136C61.56 81.97 63.4524 80.985 65.2602 79.8701C67.024 78.7699 68.707 77.5509 70.2907 76.2092C71.2718 75.3804 72.2198 74.5033 73.1311 73.5816C73.844 72.8568 74.5311 72.1135 75.1888 71.3516C77.1106 69.1142 78.8083 66.6724 80.245 64.067C80.9873 62.7142 81.6597 61.3204 82.2623 59.8858C82.9568 58.2245 83.5447 56.5297 84.0224 54.8089C84.0261 54.8052 84.0261 54.8052 84.0261 54.8015C84.0335 54.7829 84.0371 54.7643 84.0408 54.7458C85.066 51.0403 85.6135 47.1341 85.6135 43.1016C85.6135 39.0728 85.0697 35.174 84.0445 31.4723C83.5594 29.7255 82.9642 28.0084 82.2623 26.3211C81.7111 25.0017 81.0975 23.7194 80.4251 22.4707C80.4214 22.4595 80.4177 22.4558 80.4104 22.4446V22.4409C76.4786 15.1749 70.5332 9.17632 63.3384 5.21441C62.1258 4.54914 60.8765 3.93962 59.5904 3.38956C57.9479 2.68712 56.276 2.09246 54.5747 1.60558C54.571 1.60558 54.5673 1.60558 54.5636 1.60558C54.5453 1.59814 54.5269 1.59444 54.5085 1.58699C50.8487 0.553776 46.9867 0 42.9999 0ZM39.7075 13.1122C40.7878 12.9896 41.8865 12.9301 42.9999 12.9301C44.0581 12.9301 45.1054 12.9859 46.1379 13.0936C46.1453 13.0936 46.1526 13.0974 46.1637 13.0974C46.2041 13.1011 46.2408 13.1048 46.2849 13.1085C46.3253 13.1159 46.3694 13.1197 46.4098 13.1234C46.4172 13.1234 46.4245 13.1271 46.4319 13.1271C52.6896 13.8481 58.5101 16.5315 63.1804 20.8837C63.2025 20.9022 63.2209 20.9208 63.2392 20.9394C63.2576 20.9543 63.276 20.9729 63.2944 20.9877C63.8786 21.5378 64.4408 22.1101 64.981 22.7048C65.0067 22.7345 65.0324 22.7643 65.0618 22.794C65.0692 22.8014 65.0765 22.8089 65.0839 22.82C69.3169 27.5215 71.9258 33.3566 72.635 39.6228C72.635 39.6377 72.6387 39.6526 72.6387 39.6637C72.6424 39.7009 72.6461 39.7381 72.6497 39.7752C72.6571 39.8198 72.6608 39.8681 72.6644 39.9164C72.6644 39.9164 72.6681 39.9202 72.6681 39.9239C72.7747 40.9683 72.8298 42.0275 72.8298 43.1016C72.8298 44.172 72.7747 45.2312 72.6681 46.2756C72.6681 46.283 72.6644 46.2942 72.6644 46.3016C72.6608 46.3425 72.6571 46.3834 72.6534 46.4205C72.6461 46.4651 72.6424 46.5097 72.6387 46.5543C72.6387 46.5618 72.6387 46.5655 72.635 46.5729C71.8781 53.3223 68.9091 59.5662 64.0954 64.4387C58.4587 70.1362 50.9699 73.2731 42.9999 73.2731C35.0335 73.2731 27.5411 70.1362 21.9043 64.4387C17.0907 59.5699 14.1253 53.326 13.3647 46.5803C13.3647 46.5692 13.361 46.5543 13.361 46.5432C13.3574 46.506 13.3537 46.4651 13.35 46.428C13.3427 46.3834 13.339 46.3388 13.3353 46.2942C13.3353 46.2904 13.3353 46.283 13.3316 46.2793C13.2251 45.2349 13.17 44.1757 13.17 43.1016C13.17 41.9755 13.2287 40.8605 13.35 39.7678C13.3537 39.7381 13.3574 39.7083 13.3574 39.6786C13.361 39.66 13.3647 39.6377 13.3647 39.6117C14.0665 33.4161 16.6314 27.6405 20.7836 22.9687C20.813 22.9352 20.8424 22.9018 20.8718 22.8683C20.8755 22.8646 20.8791 22.8609 20.8828 22.8535C21.5406 22.1176 22.235 21.4151 22.9626 20.7499C27.6072 16.4795 33.3689 13.8444 39.5568 13.1271C39.5752 13.1271 39.5936 13.1234 39.6119 13.1234C39.645 13.1197 39.6744 13.1159 39.7075 13.1122ZM42.9999 0C19.4644 0 0.38623 19.2967 0.38623 43.1016C0.38623 66.9102 19.4644 86.2069 42.9999 86.2069C66.5353 86.2069 85.6135 66.9102 85.6135 43.1016C85.6135 19.2967 66.5353 0 42.9999 0Z" fill="#0D55EA"/>
<path d="M57 49C57 56.732 50.732 63 43 63C35.268 63 29 56.732 29 49C29 41.268 40.5 25.5 42.5 22C44.5 25.5 57 41.268 57 49Z" fill="#CF2820"/>
<path d="M54 47.0488C54 53.6493 48.6274 59 42 59C35.3726 59 30 53.6493 30 47.0488C30 40.4483 39.8571 26.9878 41.5714 24C43.2857 26.9878 54 40.4483 54 47.0488Z" fill="#F44236"/>
<path d="M40.5263 28C37.1797 32.2868 35.6886 34.9347 33.5263 40C32.062 44.7564 31.9237 46.6068 32.0263 49.5C32.0263 49.5 32.02 52.3633 34.0263 54.5C36.0326 56.6367 39.1047 55.7395 38.5263 52L36.5263 47.5C35.9128 45.8765 35.8194 44.5221 36.5263 40.5C37.4557 35.3921 38.4735 32.7051 40.5263 28Z" fill="#F98078" stroke="#F98078" stroke-width="0.3"/>
<path d="M44 46.5H49.5L53 50.5L50.5 56H45M42.5 53.5L41.5 55M41.5 55L38.5 50H33L36 55.5L41.5 55Z" stroke="#E0E0E0" stroke-width="0.3"/>
<path d="M33 50L36 45.5H41.5" stroke="#E0E0E0" stroke-width="0.3"/>
<path d="M40 45.5V43.5M40 43.5L45 45M40 43.5L44 40L49 41.5L45 45M45 45V46.5" stroke="#E0E0E0" stroke-width="0.3" stroke-linecap="round"/>
<path d="M49 41.5V46.5" stroke="#E0E0E0" stroke-width="0.3" stroke-linecap="round"/>
<rect x="43" y="52.0251" width="0.5" height="0.5" transform="rotate(-35.3535 43 52.0251)" fill="#D9D9D9"/>
<rect x="46.0254" y="51.1049" width="0.5" height="0.5" transform="rotate(-35.3535 46.0254 51.1049)" fill="#D9D9D9"/>
<rect x="43.2939" y="46" width="0.5" height="0.5" transform="rotate(59.6252 43.2939 46)" fill="#D9D9D9"/>
<rect x="47.397" y="45" width="0.5" height="0.5" transform="rotate(68.6457 47.397 45)" fill="#D9D9D9"/>
<rect x="47.5581" y="48.1582" width="0.5" height="0.5" transform="rotate(68.6457 47.5581 48.1582)" fill="#D9D9D9"/>
<rect x="43" y="42.5715" width="0.5" height="0.5" transform="rotate(-26.679 43 42.5715)" fill="#D9D9D9"/>
<rect x="46.1294" y="42.118" width="0.5" height="0.5" transform="rotate(-26.679 46.1294 42.118)" fill="#D9D9D9"/>
<rect x="50" y="49" width="0.5" height="0.5" fill="#D9D9D9"/>
<rect x="47.1011" y="54.7018" width="0.5" height="0.5" transform="rotate(-53.1917 47.1011 54.7018)" fill="#D9D9D9"/>
<rect x="49.6992" y="52.899" width="0.5" height="0.5" transform="rotate(-53.1917 49.6992 52.899)" fill="#D9D9D9"/>
<rect x="35.5728" y="51" width="0.5" height="0.5" transform="rotate(22.4533 35.5728 51)" fill="#D9D9D9"/>
<rect x="37.9634" y="53.07" width="0.5" height="0.5" transform="rotate(22.4533 37.9634 53.07)" fill="#D9D9D9"/>
<rect x="35" y="48.0649" width="0.5" height="0.5" transform="rotate(-36.1546 35 48.0649)" fill="#D9D9D9"/>
<rect x="38.0122" y="47.1024" width="0.5" height="0.5" transform="rotate(-36.1546 38.0122 47.1024)" fill="#D9D9D9"/>
<rect x="41" y="49.295" width="0.5" height="0.5" transform="rotate(-36.1546 41 49.295)" fill="#D9D9D9"/>
<path d="M38.5 50L41.5 45.5L43 48M53 50.5L47.4729 50.4691M47.4729 50.4691L44 46.5C44 46.5 43.5 47.6 41.5 52L45 56L47.5 50.5L47.4729 50.4691Z" stroke="#E0E0E0" stroke-width="0.3"/>
</svg>
