<svg width="176" height="24" viewBox="0 0 176 24" fill="none" xmlns="http://www.w3.org/2000/svg">
<path d="M2.1 19V7.46C2.1 6.42 2.4 5.59333 3 4.98C3.61333 4.35333 4.48 4.04 5.6 4.04C6.01333 4.04 6.40667 4.09333 6.78 4.2C7.16667 4.29333 7.49333 4.44667 7.76 4.66L7.18 6.12C6.98 5.96 6.75333 5.84 6.5 5.76C6.24667 5.66667 5.98 5.62 5.7 5.62C5.14 5.62 4.71333 5.78 4.42 6.1C4.12667 6.40667 3.98 6.86667 3.98 7.48V8.9L4.02 9.78V19H2.1ZM0.3 9.98V8.4H7.06V9.98H0.3ZM8.87078 19V8.4H10.7108V11.28L10.5308 10.56C10.8241 9.82667 11.3174 9.26667 12.0108 8.88C12.7041 8.49333 13.5574 8.3 14.5708 8.3V10.16C14.4908 10.1467 14.4108 10.14 14.3308 10.14C14.2641 10.14 14.1974 10.14 14.1308 10.14C13.1041 10.14 12.2908 10.4467 11.6908 11.06C11.0908 11.6733 10.7908 12.56 10.7908 13.72V19H8.87078ZM21.5595 19.12C20.4262 19.12 19.4262 18.8867 18.5595 18.42C17.7062 17.9533 17.0395 17.3133 16.5595 16.5C16.0929 15.6867 15.8595 14.7533 15.8595 13.7C15.8595 12.6467 16.0862 11.7133 16.5395 10.9C17.0062 10.0867 17.6395 9.45333 18.4395 9C19.2529 8.53333 20.1662 8.3 21.1795 8.3C22.2062 8.3 23.1129 8.52667 23.8995 8.98C24.6862 9.43333 25.2995 10.0733 25.7395 10.9C26.1929 11.7133 26.4195 12.6667 26.4195 13.76C26.4195 13.84 26.4129 13.9333 26.3995 14.04C26.3995 14.1467 26.3929 14.2467 26.3795 14.34H17.3595V12.96H25.3795L24.5995 13.44C24.6129 12.76 24.4729 12.1533 24.1795 11.62C23.8862 11.0867 23.4795 10.6733 22.9595 10.38C22.4529 10.0733 21.8595 9.92 21.1795 9.92C20.5129 9.92 19.9195 10.0733 19.3995 10.38C18.8795 10.6733 18.4729 11.0933 18.1795 11.64C17.8862 12.1733 17.7395 12.7867 17.7395 13.48V13.8C17.7395 14.5067 17.8995 15.14 18.2195 15.7C18.5529 16.2467 19.0129 16.6733 19.5995 16.98C20.1862 17.2867 20.8595 17.44 21.6195 17.44C22.2462 17.44 22.8129 17.3333 23.3195 17.12C23.8395 16.9067 24.2929 16.5867 24.6795 16.16L25.7395 17.4C25.2595 17.96 24.6595 18.3867 23.9395 18.68C23.2329 18.9733 22.4395 19.12 21.5595 19.12ZM33.8056 19.12C32.6723 19.12 31.6723 18.8867 30.8056 18.42C29.9523 17.9533 29.2856 17.3133 28.8056 16.5C28.339 15.6867 28.1056 14.7533 28.1056 13.7C28.1056 12.6467 28.3323 11.7133 28.7856 10.9C29.2523 10.0867 29.8856 9.45333 30.6856 9C31.499 8.53333 32.4123 8.3 33.4256 8.3C34.4523 8.3 35.359 8.52667 36.1456 8.98C36.9323 9.43333 37.5456 10.0733 37.9856 10.9C38.439 11.7133 38.6656 12.6667 38.6656 13.76C38.6656 13.84 38.659 13.9333 38.6456 14.04C38.6456 14.1467 38.639 14.2467 38.6256 14.34H29.6056V12.96H37.6256L36.8456 13.44C36.859 12.76 36.719 12.1533 36.4256 11.62C36.1323 11.0867 35.7256 10.6733 35.2056 10.38C34.699 10.0733 34.1056 9.92 33.4256 9.92C32.759 9.92 32.1656 10.0733 31.6456 10.38C31.1256 10.6733 30.719 11.0933 30.4256 11.64C30.1323 12.1733 29.9856 12.7867 29.9856 13.48V13.8C29.9856 14.5067 30.1456 15.14 30.4656 15.7C30.799 16.2467 31.259 16.6733 31.8456 16.98C32.4323 17.2867 33.1056 17.44 33.8656 17.44C34.4923 17.44 35.059 17.3333 35.5656 17.12C36.0856 16.9067 36.539 16.5867 36.9256 16.16L37.9856 17.4C37.5056 17.96 36.9056 18.3867 36.1856 18.68C35.479 18.9733 34.6856 19.12 33.8056 19.12ZM41.6117 19V7.46C41.6117 6.42 41.9117 5.59333 42.5117 4.98C43.1251 4.35333 43.9917 4.04 45.1117 4.04C45.5251 4.04 45.9184 4.09333 46.2917 4.2C46.6784 4.29333 47.0051 4.44667 47.2717 4.66L46.6917 6.12C46.4917 5.96 46.2651 5.84 46.0117 5.76C45.7584 5.66667 45.4917 5.62 45.2117 5.62C44.6517 5.62 44.2251 5.78 43.9317 6.1C43.6384 6.40667 43.4917 6.86667 43.4917 7.48V8.9L43.5317 9.78V19H41.6117ZM39.8117 9.98V8.4H46.5717V9.98H39.8117ZM48.3825 19V8.4H50.2225V11.28L50.0425 10.56C50.3358 9.82667 50.8292 9.26667 51.5225 8.88C52.2158 8.49333 53.0692 8.3 54.0825 8.3V10.16C54.0025 10.1467 53.9225 10.14 53.8425 10.14C53.7758 10.14 53.7092 10.14 53.6425 10.14C52.6158 10.14 51.8025 10.4467 51.2025 11.06C50.6025 11.6733 50.3025 12.56 50.3025 13.72V19H48.3825ZM60.8913 19.12C59.8246 19.12 58.8779 18.8867 58.0513 18.42C57.2246 17.9533 56.5713 17.3133 56.0913 16.5C55.6113 15.6733 55.3713 14.74 55.3713 13.7C55.3713 12.6467 55.6113 11.7133 56.0913 10.9C56.5713 10.0867 57.2246 9.45333 58.0513 9C58.8779 8.53333 59.8246 8.3 60.8913 8.3C61.9446 8.3 62.8846 8.53333 63.7113 9C64.5513 9.45333 65.2046 10.0867 65.6713 10.9C66.1513 11.7 66.3913 12.6333 66.3913 13.7C66.3913 14.7533 66.1513 15.6867 65.6713 16.5C65.2046 17.3133 64.5513 17.9533 63.7113 18.42C62.8846 18.8867 61.9446 19.12 60.8913 19.12ZM60.8913 17.44C61.5713 17.44 62.1779 17.2867 62.7113 16.98C63.2579 16.6733 63.6846 16.24 63.9913 15.68C64.2979 15.1067 64.4513 14.4467 64.4513 13.7C64.4513 12.94 64.2979 12.2867 63.9913 11.74C63.6846 11.18 63.2579 10.7467 62.7113 10.44C62.1779 10.1333 61.5713 9.98 60.8913 9.98C60.2113 9.98 59.6046 10.1333 59.0713 10.44C58.5379 10.7467 58.1113 11.18 57.7913 11.74C57.4713 12.2867 57.3113 12.94 57.3113 13.7C57.3113 14.4467 57.4713 15.1067 57.7913 15.68C58.1113 16.24 58.5379 16.6733 59.0713 16.98C59.6046 17.2867 60.2113 17.44 60.8913 17.44ZM82.3066 8.3C83.1599 8.3 83.9132 8.46667 84.5666 8.8C85.2199 9.13333 85.7266 9.64 86.0866 10.32C86.4599 11 86.6466 11.86 86.6466 12.9V19H84.7266V13.12C84.7266 12.0933 84.4866 11.32 84.0066 10.8C83.5266 10.28 82.8532 10.02 81.9866 10.02C81.3466 10.02 80.7866 10.1533 80.3066 10.42C79.8266 10.6867 79.4532 11.08 79.1866 11.6C78.9332 12.12 78.8066 12.7667 78.8066 13.54V19H76.8866V13.12C76.8866 12.0933 76.6466 11.32 76.1666 10.8C75.6999 10.28 75.0266 10.02 74.1466 10.02C73.5199 10.02 72.9666 10.1533 72.4866 10.42C72.0066 10.6867 71.6332 11.08 71.3666 11.6C71.0999 12.12 70.9666 12.7667 70.9666 13.54V19H69.0466V8.4H70.8866V11.22L70.5866 10.5C70.9199 9.80667 71.4332 9.26667 72.1266 8.88C72.8199 8.49333 73.6266 8.3 74.5466 8.3C75.5599 8.3 76.4332 8.55333 77.1666 9.06C77.8999 9.55333 78.3799 10.3067 78.6066 11.32L77.8266 11C78.1466 10.1867 78.7066 9.53333 79.5066 9.04C80.3066 8.54667 81.2399 8.3 82.3066 8.3ZM94.5594 19.12C93.5327 19.12 92.6127 18.8933 91.7994 18.44C90.9994 17.9867 90.366 17.3533 89.8994 16.54C89.4327 15.7267 89.1994 14.78 89.1994 13.7C89.1994 12.62 89.4327 11.68 89.8994 10.88C90.366 10.0667 90.9994 9.43333 91.7994 8.98C92.6127 8.52667 93.5327 8.3 94.5594 8.3C95.4527 8.3 96.2594 8.5 96.9794 8.9C97.6994 9.3 98.2727 9.9 98.6994 10.7C99.1394 11.5 99.3594 12.5 99.3594 13.7C99.3594 14.9 99.146 15.9 98.7194 16.7C98.306 17.5 97.7394 18.1067 97.0194 18.52C96.2994 18.92 95.4794 19.12 94.5594 19.12ZM94.7194 17.44C95.386 17.44 95.986 17.2867 96.5194 16.98C97.066 16.6733 97.4927 16.24 97.7994 15.68C98.1194 15.1067 98.2794 14.4467 98.2794 13.7C98.2794 12.94 98.1194 12.2867 97.7994 11.74C97.4927 11.18 97.066 10.7467 96.5194 10.44C95.986 10.1333 95.386 9.98 94.7194 9.98C94.0394 9.98 93.4327 10.1333 92.8994 10.44C92.366 10.7467 91.9394 11.18 91.6194 11.74C91.2994 12.2867 91.1394 12.94 91.1394 13.7C91.1394 14.4467 91.2994 15.1067 91.6194 15.68C91.9394 16.24 92.366 16.6733 92.8994 16.98C93.4327 17.2867 94.0394 17.44 94.7194 17.44ZM98.3394 19V16.14L98.4594 13.68L98.2594 11.22V4.16H100.179V19H98.3394ZM103.812 19V8.4H105.732V19H103.812ZM104.772 6.36C104.399 6.36 104.086 6.24 103.832 6C103.592 5.76 103.472 5.46667 103.472 5.12C103.472 4.76 103.592 4.46 103.832 4.22C104.086 3.98 104.399 3.86 104.772 3.86C105.146 3.86 105.452 3.98 105.692 4.22C105.946 4.44667 106.072 4.73333 106.072 5.08C106.072 5.44 105.952 5.74667 105.712 6C105.472 6.24 105.159 6.36 104.772 6.36ZM115.978 19V16.76L115.878 16.34V12.52C115.878 11.7067 115.638 11.08 115.158 10.64C114.691 10.1867 113.985 9.96 113.038 9.96C112.411 9.96 111.798 10.0667 111.198 10.28C110.598 10.48 110.091 10.7533 109.678 11.1L108.878 9.66C109.425 9.22 110.078 8.88667 110.838 8.66C111.611 8.42 112.418 8.3 113.258 8.3C114.711 8.3 115.831 8.65333 116.618 9.36C117.405 10.0667 117.798 11.1467 117.798 12.6V19H115.978ZM112.498 19.12C111.711 19.12 111.018 18.9867 110.418 18.72C109.831 18.4533 109.378 18.0867 109.058 17.62C108.738 17.14 108.578 16.6 108.578 16C108.578 15.4267 108.711 14.9067 108.978 14.44C109.258 13.9733 109.705 13.6 110.318 13.32C110.945 13.04 111.785 12.9 112.838 12.9H116.198V14.28H112.918C111.958 14.28 111.311 14.44 110.978 14.76C110.645 15.08 110.478 15.4667 110.478 15.92C110.478 16.44 110.685 16.86 111.098 17.18C111.511 17.4867 112.085 17.64 112.818 17.64C113.538 17.64 114.165 17.48 114.698 17.16C115.245 16.84 115.638 16.3733 115.878 15.76L116.258 17.08C116.005 17.7067 115.558 18.2067 114.918 18.58C114.278 18.94 113.471 19.12 112.498 19.12ZM126.971 19.12C126.065 19.12 125.245 18.92 124.511 18.52C123.791 18.1067 123.218 17.5 122.791 16.7C122.378 15.9 122.171 14.9 122.171 13.7C122.171 12.5 122.385 11.5 122.811 10.7C123.251 9.9 123.831 9.3 124.551 8.9C125.285 8.5 126.091 8.3 126.971 8.3C128.011 8.3 128.931 8.52667 129.731 8.98C130.531 9.43333 131.165 10.0667 131.631 10.88C132.098 11.68 132.331 12.62 132.331 13.7C132.331 14.78 132.098 15.7267 131.631 16.54C131.165 17.3533 130.531 17.9867 129.731 18.44C128.931 18.8933 128.011 19.12 126.971 19.12ZM121.351 19V4.16H123.271V11.22L123.071 13.68L123.191 16.14V19H121.351ZM126.811 17.44C127.491 17.44 128.098 17.2867 128.631 16.98C129.178 16.6733 129.605 16.24 129.911 15.68C130.231 15.1067 130.391 14.4467 130.391 13.7C130.391 12.94 130.231 12.2867 129.911 11.74C129.605 11.18 129.178 10.7467 128.631 10.44C128.098 10.1333 127.491 9.98 126.811 9.98C126.145 9.98 125.538 10.1333 124.991 10.44C124.458 10.7467 124.031 11.18 123.711 11.74C123.405 12.2867 123.251 12.94 123.251 13.7C123.251 14.4467 123.405 15.1067 123.711 15.68C124.031 16.24 124.458 16.6733 124.991 16.98C125.538 17.2867 126.145 17.44 126.811 17.44ZM139.704 19.12C138.571 19.12 137.571 18.8867 136.704 18.42C135.851 17.9533 135.184 17.3133 134.704 16.5C134.237 15.6867 134.004 14.7533 134.004 13.7C134.004 12.6467 134.231 11.7133 134.684 10.9C135.151 10.0867 135.784 9.45333 136.584 9C137.397 8.53333 138.311 8.3 139.324 8.3C140.351 8.3 141.257 8.52667 142.044 8.98C142.831 9.43333 143.444 10.0733 143.884 10.9C144.337 11.7133 144.564 12.6667 144.564 13.76C144.564 13.84 144.557 13.9333 144.544 14.04C144.544 14.1467 144.537 14.2467 144.524 14.34H135.504V12.96H143.524L142.744 13.44C142.757 12.76 142.617 12.1533 142.324 11.62C142.031 11.0867 141.624 10.6733 141.104 10.38C140.597 10.0733 140.004 9.92 139.324 9.92C138.657 9.92 138.064 10.0733 137.544 10.38C137.024 10.6733 136.617 11.0933 136.324 11.64C136.031 12.1733 135.884 12.7867 135.884 13.48V13.8C135.884 14.5067 136.044 15.14 136.364 15.7C136.697 16.2467 137.157 16.6733 137.744 16.98C138.331 17.2867 139.004 17.44 139.764 17.44C140.391 17.44 140.957 17.3333 141.464 17.12C141.984 16.9067 142.437 16.5867 142.824 16.16L143.884 17.4C143.404 17.96 142.804 18.3867 142.084 18.68C141.377 18.9733 140.584 19.12 139.704 19.12ZM150.87 19.12C149.803 19.12 148.977 18.8333 148.39 18.26C147.803 17.6867 147.51 16.8667 147.51 15.8V6.08H149.43V15.72C149.43 16.2933 149.57 16.7333 149.85 17.04C150.143 17.3467 150.557 17.5 151.09 17.5C151.69 17.5 152.19 17.3333 152.59 17L153.19 18.38C152.897 18.6333 152.543 18.82 152.13 18.94C151.73 19.06 151.31 19.12 150.87 19.12ZM145.71 9.98V8.4H152.47V9.98H145.71ZM159.88 19.12C158.747 19.12 157.747 18.8867 156.88 18.42C156.027 17.9533 155.36 17.3133 154.88 16.5C154.413 15.6867 154.18 14.7533 154.18 13.7C154.18 12.6467 154.407 11.7133 154.86 10.9C155.327 10.0867 155.96 9.45333 156.76 9C157.573 8.53333 158.487 8.3 159.5 8.3C160.527 8.3 161.433 8.52667 162.22 8.98C163.007 9.43333 163.62 10.0733 164.06 10.9C164.513 11.7133 164.74 12.6667 164.74 13.76C164.74 13.84 164.733 13.9333 164.72 14.04C164.72 14.1467 164.713 14.2467 164.7 14.34H155.68V12.96H163.7L162.92 13.44C162.933 12.76 162.793 12.1533 162.5 11.62C162.207 11.0867 161.8 10.6733 161.28 10.38C160.773 10.0733 160.18 9.92 159.5 9.92C158.833 9.92 158.24 10.0733 157.72 10.38C157.2 10.6733 156.793 11.0933 156.5 11.64C156.207 12.1733 156.06 12.7867 156.06 13.48V13.8C156.06 14.5067 156.22 15.14 156.54 15.7C156.873 16.2467 157.333 16.6733 157.92 16.98C158.507 17.2867 159.18 17.44 159.94 17.44C160.567 17.44 161.133 17.3333 161.64 17.12C162.16 16.9067 162.613 16.5867 163 16.16L164.06 17.4C163.58 17.96 162.98 18.3867 162.26 18.68C161.553 18.9733 160.76 19.12 159.88 19.12ZM170.446 19.12C169.566 19.12 168.726 19 167.926 18.76C167.139 18.52 166.519 18.2267 166.066 17.88L166.866 16.36C167.319 16.6667 167.879 16.9267 168.546 17.14C169.213 17.3533 169.893 17.46 170.586 17.46C171.479 17.46 172.119 17.3333 172.506 17.08C172.906 16.8267 173.106 16.4733 173.106 16.02C173.106 15.6867 172.986 15.4267 172.746 15.24C172.506 15.0533 172.186 14.9133 171.786 14.82C171.399 14.7267 170.966 14.6467 170.486 14.58C170.006 14.5 169.526 14.4067 169.046 14.3C168.566 14.18 168.126 14.02 167.726 13.82C167.326 13.6067 167.006 13.32 166.766 12.96C166.526 12.5867 166.406 12.0933 166.406 11.48C166.406 10.84 166.586 10.28 166.946 9.8C167.306 9.32 167.813 8.95333 168.466 8.7C169.133 8.43333 169.919 8.3 170.826 8.3C171.519 8.3 172.219 8.38667 172.926 8.56C173.646 8.72 174.233 8.95333 174.686 9.26L173.866 10.78C173.386 10.46 172.886 10.24 172.366 10.12C171.846 10 171.326 9.94 170.806 9.94C169.966 9.94 169.339 10.08 168.926 10.36C168.513 10.6267 168.306 10.9733 168.306 11.4C168.306 11.76 168.426 12.04 168.666 12.24C168.919 12.4267 169.239 12.5733 169.626 12.68C170.026 12.7867 170.466 12.88 170.946 12.96C171.426 13.0267 171.906 13.12 172.386 13.24C172.866 13.3467 173.299 13.5 173.686 13.7C174.086 13.9 174.406 14.18 174.646 14.54C174.899 14.9 175.026 15.38 175.026 15.98C175.026 16.62 174.839 17.1733 174.466 17.64C174.093 18.1067 173.566 18.4733 172.886 18.74C172.206 18.9933 171.393 19.12 170.446 19.12Z" fill="#E81622"/>
</svg>
